<?xml version="1.0" encoding="UTF-8" standalone="no"?><svg xmlns="http://www.w3.org/2000/svg" fill="#000000" height="440.95pt" version="1.1" viewBox="0 0 409.51 440.95" width="409.51pt">
 <g id="surface1">
  <g id="change1_1"><path d="m6.4297 120.96s0.375-2.06 1.0937-6.03c0.3086-1.98 0.8946-4.46 1.6016-7.4 0.6367-2.98 1.621-6.35 2.754-10.151 2.391-7.57 5.91-16.813 11.578-27 5.609-10.195 13.629-21.227 24.707-31.641 5.559-5.16 11.805-10.242 18.895-14.789 7.086-4.551 14.945-8.633 23.461-12.113 8.519-3.4727 17.7-6.3087 27.43-8.3477 9.73-2 19.99-3.168 30.62-3.4414 21.23-0.47268 44.07 2.6093 66.67 10.824 11.26 4.16 22.55 9.395 33.28 16.238 10.76 6.809 21.14 15.024 30.22 25.043 4.51 5.004 8.84 10.34 12.61 16.168 1.99 2.836 3.66 5.922 5.45 8.938 1.59 3.125 3.3 6.222 4.66 9.512 1.52 3.214 2.69 6.605 3.96 9.957 1.04 3.433 2.26 6.843 3.02 10.393 1.83 7.01 2.84 14.27 3.41 21.58 0.6 7.34 0.33 14.72-0.26 22.11-0.85 7.34-1.93 14.71-3.8 21.91l-0.66 2.73-0.34 1.39-0.36 1.25-1.41 5.06c-0.5 1.72-1.18 3.66-1.77 5.47-0.61 1.89-1.23 3.72-1.95 5.46-2.6 7.13-5.99 14.04-9.85 20.75-7.68 13.42-17.9 25.65-29.84 35.98-12.12 10.18-25.97 18.38-40.78 24.29-29.73 11.65-62.85 14.4-94.72 8.76-15.93-2.81-31.641-7.66-46.395-14.84-14.699-7.2-28.645-16.41-40.477-28.1-11.82-11.64-21.664-25.51-28.308-40.93-6.7816-15.36-10.164-32.15-10.805-48.95-0.02344-2.14-0.19141-4.15-0.097656-6.37l0.14063-6.16c0.02734-2.05 0.27734-4.23 0.40625-6.34 0.14844-2.13 0.3125-4.25 0.62498-6.33 0.9141-8.39 2.7696-16.7 5.1172-24.88 4.6756-16.378 12.969-31.808 23.817-45.183 10.832-13.449 24.605-24.433 39.722-32.828 15.122-8.476 31.755-14.109 48.795-17.285 34.1-6.3359 70.13-2.6171 102.5 10.883 16.11 6.887 31.32 16.191 44.57 27.883 6.57 5.875 12.67 12.297 18.21 19.164 5.51 6.902 10.36 14.297 14.67 21.98 8.57 15.396 14.24 32.156 17.67 49.126 0.69 4.26 1.59 8.5 2.02 12.77l0.76 6.4 0.47 6.41c0.4 4.27 0.32 8.51 0.47 12.78 0.05 2.13-0.05 4.25-0.08 6.37l-0.07 3.17-0.04 1.59c-0.03 0.58 0.06-0.15-0.08 1.47l-0.08 0.75c-0.23 2.05-0.36 3.91-0.67 6.09-0.35 2.26-0.67 4.59-1.08 6.78-0.46 2.15-0.87 4.32-1.37 6.47-0.56 2.12-1.08 4.27-1.7 6.37-2.47 8.45-5.82 16.62-9.91 24.34-8.18 15.45-19.32 29-32.03 40.23-12.73 11.22-26.98 20.31-42 27.1-15 6.83-30.69 11.59-46.56 14.4-15.87 2.75-31.94 3.59-47.73 2.22-15.78-1.39-31.32-4.89-45.879-10.72-14.57-5.78-28.047-14.1-39.547-24.33s-20.961-22.42-27.773-35.55c-3.422-6.51-6.399-13.33-8.602-20.01l-1.629-4.72-1.57-5.05c-1.094-3.35-1.9338-6.65-2.8361-9.96-3.5039-13.21-5.6055-26.69-6.1758-40.09-0.2226-6.7-0.0859-13.38 0.6524-19.98 0.2578-3.29 0.8672-6.56 1.3437-9.81 0.6836-3.23 1.2578-6.45 2.1563-9.58 1.625-6.33 3.8085-12.45 6.4645-18.25 2.59-5.84 5.692-11.37 9.192-16.497 6.894-10.351 15.336-19.133 24.39-26.289 9.02-7.265 18.668-12.898 28.27-17.551 9.672-4.531 19.34-8.043 28.843-10.679 9.51-2.59 18.8-4.379 27.77-5.606 17.93-2.429 34.54-2.566 49.39-1.441 29.75 2.203 52.26 9.234 66.88 15.187 7.34 3.024 12.74 5.786 16.33 7.7 3.55 2.007 5.38 3.039 5.38 3.039l-1.13 2.129s-1.89-0.86-5.54-2.5c-3.69-1.559-9.21-3.786-16.59-6.075-14.7-4.605-37.06-9.629-65.74-9.839-14.3-0.043-30.16 1.015-46.94 4.3-16.75 3.285-34.497 8.793-51.571 17.848-16.965 9.086-33.102 22.258-44.059 39.954-2.754 4.38-5.148 9.07-7.105 13.99-2.012 4.9-3.637 10.03-4.777 15.36-0.668 2.63-1.02 5.38-1.5 8.09-0.29 2.75-0.711 5.5-0.817 8.32-0.433 5.59-0.266 11.33 0.067 17.11 0.828 11.57 2.976 23.43 6.472 35.27 0.899 2.94 1.742 5.96 2.77 8.82l1.472 4.34 1.743 4.61c2.105 5.87 4.683 11.26 7.675 16.61 5.942 10.64 13.762 20.28 23.207 28.39 9.438 8.12 20.532 14.64 32.664 19.28 12.109 4.69 25.249 7.54 38.759 8.59 13.5 1.08 27.42 0.49 41.19-1.9 27.52-4.8 54.71-16.55 76.53-35.08 10.85-9.29 20.22-20.36 27.1-32.88 3.46-6.26 6.28-12.87 8.44-19.73 0.54-1.71 1-3.46 1.49-5.19 0.45-1.74 0.83-3.52 1.23-5.28 0.38-1.73 0.61-3.39 0.94-5.08 0.3-1.78 0.5-3.93 0.76-5.88l0.1-0.75c-0.09 1.14 0-0.08-0.02-0.01l0.07-1.44 0.11-2.87c0.06-1.89 0.2-3.82 0.2-5.72-0.08-3.81 0.1-7.65-0.2-11.46l-0.3-5.71-0.55-5.69c-0.31-3.81-1.04-7.54-1.56-11.33-2.7-14.98-7.41-29.61-14.45-43.125-13.91-27.156-37.64-49.16-66.03-62.539-28.37-13.39-61.23-18.625-92.98-14.254-15.84 2.184-31.458 6.672-45.782 13.848-14.273 7.121-27.359 16.82-37.875 28.895-10.441 12.097-18.457 26.316-23.242 41.625-2.437 7.63-4.2421 15.5-5.1601 23.47-0.3242 1.99-0.4843 3.97-0.6328 5.95-0.1406 2-0.4023 3.91-0.4453 5.98l-0.1797 6.17c-0.1015 1.87 0.0391 3.96 0.0547 5.93 0.3984 15.98 3.6912 31.83 10.18 46.22 6.453 14.4 15.871 27.31 27.367 37.81 11.476 10.52 24.718 18.99 38.886 24.97 14.137 6.03 29.039 9.94 44.029 11.69 14.98 1.76 30.01 1.57 44.55-0.56 14.52-2.15 28.51-6.27 41.41-12.11 25.84-11.69 46.72-31.02 59.24-54.27 3.1-5.82 5.88-11.78 8.08-17.95 0.61-1.55 1.1-3.04 1.56-4.53 0.47-1.54 0.98-2.9 1.44-4.56l1.36-5.08 0.33-1.26 0.26-1.16 0.55-2.37c1.66-6.29 2.55-12.62 3.29-18.89 0.45-6.28 0.81-12.51 0.36-18.64-0.39-6.12-1.14-12.16-2.58-18.01-0.58-2.95-1.57-5.78-2.38-8.64-1.03-2.79-1.94-5.618-3.17-8.301-1.09-2.746-2.49-5.34-3.78-7.973-1.47-2.531-2.8-5.14-4.47-7.539-3.09-4.937-6.71-9.5-10.49-13.828-15.21-17.355-34.84-29.66-54.85-37.598-20.1-7.808-40.67-11.753-60.05-12.093-9.7-0.176-19.09 0.515-28.03 1.922-8.96 1.355-17.48 3.464-25.412 6.175-15.938 5.403-29.403 13.422-40.286 22.223-5.507 4.352-10.136 9.148-14.39 13.77-2.012 2.406-4.074 4.667-5.785 7.066-0.903 1.176-1.786 2.328-2.649 3.465-0.808 1.176-1.598 2.336-2.371 3.48-6.191 9.149-10.258 17.742-13.285 24.817-1.457 3.564-2.758 6.734-3.649 9.524-0.976 2.76-1.789 5.1-2.3 7.07-1.1214 3.88-1.6996 5.88-1.6996 5.88l-2.3437-0.53" fill="#ff99c2"/></g>
  <g id="change2_1"><path d="m403.21 297.57s-0.42-1.44-1.23-4.23c-0.36-1.41-0.95-3.1-1.64-5.09-0.65-2-1.58-4.27-2.63-6.84-2.17-5.07-5.1-11.25-9.54-17.82-0.56-0.82-1.13-1.66-1.71-2.5-0.62-0.82-1.26-1.65-1.9-2.49-1.23-1.72-2.71-3.35-4.16-5.08-3.05-3.32-6.38-6.77-10.34-9.9-7.82-6.32-17.49-12.08-28.94-15.96-5.71-1.95-11.82-3.46-18.26-4.44-6.42-1.01-13.17-1.51-20.14-1.38-13.92 0.25-28.7 3.08-43.15 8.69-14.37 5.7-28.47 14.54-39.4 27.01-2.72 3.11-5.32 6.39-7.54 9.94-1.2 1.72-2.15 3.6-3.21 5.41-0.92 1.9-1.94 3.76-2.72 5.73-0.88 1.93-1.54 3.97-2.27 5.97-0.58 2.05-1.3 4.09-1.72 6.21-1.03 4.2-1.57 8.54-1.85 12.93-0.32 4.41-0.06 8.88 0.26 13.4 0.54 4.5 1.17 9.05 2.36 13.57l0.4 1.7 0.19 0.84 0.24 0.9 0.97 3.65c0.33 1.19 0.7 2.17 1.04 3.28 0.32 1.07 0.68 2.14 1.12 3.26 1.58 4.43 3.58 8.71 5.8 12.88 8.99 16.72 24 30.6 42.57 39 9.26 4.2 19.32 7.16 29.75 8.7 10.44 1.54 21.24 1.67 32.01 0.4 10.76-1.25 21.47-4.06 31.63-8.39 10.18-4.3 19.69-10.38 27.94-17.94 8.26-7.55 15.02-16.82 19.66-27.17 4.66-10.34 7.03-21.72 7.32-33.21 0-1.41 0.11-2.91 0.04-4.26l-0.14-4.43c-0.03-1.49-0.22-2.86-0.32-4.3-0.1-1.42-0.22-2.85-0.45-4.27-0.66-5.73-1.96-11.39-3.71-16.87-3.43-10.99-9.2-21.21-16.7-29.9-7.55-8.68-16.95-15.65-27.21-20.77-10.29-5.15-21.51-8.37-32.89-9.94-22.81-3.15-46.42 0.62-66.8 10.24-20.4 9.61-37.46 25.42-47.44 44.93-5.07 9.71-8.45 20.22-10.39 30.99-0.38 2.71-0.9 5.39-1.12 8.14l-0.4 4.08-0.21 4.11c-0.22 2.73-0.08 5.49-0.14 8.23 0 1.36 0.1 2.75 0.14 4.11l0.08 2.06 0.05 1.04c-0.01-0.06 0.04 0.82-0.01 0.01l0.07 0.53c0.18 1.4 0.32 2.95 0.54 4.22 0.24 1.22 0.41 2.41 0.68 3.66 0.29 1.26 0.55 2.54 0.88 3.79 0.36 1.25 0.69 2.5 1.07 3.73 1.56 4.93 3.58 9.67 6.06 14.18 4.95 8.99 11.68 16.95 19.48 23.62 15.67 13.31 35.2 21.76 54.98 25.2 9.9 1.72 19.9 2.15 29.6 1.37 9.7-0.76 19.14-2.8 27.84-6.17 8.72-3.34 16.69-8.02 23.47-13.85 6.79-5.83 12.41-12.76 16.68-20.4 2.15-3.85 4-7.72 5.51-11.94l1.25-3.31 1.06-3.12c0.74-2.05 1.35-4.22 1.99-6.34 2.51-8.51 4.06-17.02 4.65-25.34 0.24-4.15 0.36-8.27 0.05-12.29-0.08-2.02-0.38-4-0.59-5.98-0.34-1.95-0.59-3.91-1.07-5.81-0.83-3.83-1.99-7.51-3.44-11.04-1.4-3.53-3.12-6.9-5.1-10.05-7.88-12.71-19.47-22.17-31.66-28.7-12.27-6.51-25.02-10.46-37.05-12.83-12.06-2.36-23.45-3.12-33.73-3.09-20.6 0.16-36.67 3.77-47.23 7.07-5.3 1.65-9.27 3.25-11.92 4.37-2.62 1.18-3.98 1.79-3.98 1.79l-0.81-1.52s1.31-0.75 3.86-2.19c2.58-1.38 6.47-3.36 11.74-5.53 10.5-4.28 26.67-9.33 48.05-10.91 10.67-0.81 22.6-0.71 35.48 1.03 6.45 0.89 13.12 2.17 19.96 4.03 6.83 1.9 13.77 4.42 20.72 7.68 6.89 3.34 13.83 7.38 20.31 12.6 6.51 5.15 12.57 11.45 17.53 18.89 2.51 3.69 4.74 7.66 6.6 11.85 1.91 4.17 3.48 8.57 4.64 13.11 0.65 2.25 1.06 4.57 1.55 6.89 0.34 2.34 0.78 4.68 0.97 7.05 0.53 4.74 0.63 9.54 0.47 14.35-0.41 9.63-1.92 19.31-4.44 28.81-0.65 2.37-1.25 4.75-2.04 7.15l-1.13 3.63-1.17 3.4c-1.58 4.79-3.72 9.7-6.18 14.37-4.89 9.43-11.69 18.19-19.95 25.54-8.27 7.36-17.95 13.33-28.41 17.48-10.47 4.19-21.63 6.71-32.97 7.7-11.35 0.99-22.89 0.38-34.3-1.59-11.39-2.02-22.67-5.44-33.45-10.34-10.78-4.88-21.03-11.42-30.17-19.48-9.13-8.07-17.13-17.8-23.01-28.9-2.94-5.55-5.35-11.42-7.12-17.49-0.45-1.51-0.82-3.06-1.22-4.58-0.37-1.54-0.66-3.1-0.99-4.64-0.3-1.57-0.52-3.25-0.78-4.87-0.22-1.57-0.31-2.91-0.47-4.38l-0.06-0.54c-0.1-1.17-0.04-0.65-0.06-1.06l-0.03-1.14-0.05-2.28c-0.02-1.52-0.09-3.04-0.06-4.58 0.11-3.06 0.05-6.11 0.35-9.17l0.33-4.61 0.54-4.6c0.32-3.07 0.95-6.12 1.46-9.18 2.46-12.19 6.54-24.23 12.69-35.29 3.09-5.52 6.58-10.83 10.55-15.79 3.97-4.94 8.36-9.55 13.08-13.77 9.51-8.4 20.44-15.09 32.02-20.04 23.26-9.7 49.14-12.37 73.64-7.82 12.24 2.28 24.19 6.33 35.06 12.43 10.86 6.02 20.75 13.92 28.54 23.58 7.79 9.61 13.75 20.7 17.11 32.47 1.69 5.87 3.02 11.84 3.67 17.87 0.23 1.49 0.35 3.02 0.46 4.55 0.09 1.51 0.27 3.08 0.29 4.55l0.1 4.43c0.06 1.6-0.05 3.04-0.07 4.57-0.46 12.07-2.89 24.14-7.76 35.17-4.78 11.08-11.85 21.05-20.34 29.41-8.5 8.4-18.52 15.02-29.09 20.19-10.59 5.16-21.88 8.64-33.33 10.66-22.89 4.05-46.69 2.08-68.05-6.29-10.65-4.25-20.59-10.14-29.3-17.45-8.58-7.43-15.93-16.21-21.44-25.85-2.77-4.82-5.21-9.79-7.08-14.91-0.51-1.26-0.97-2.57-1.4-3.92-0.42-1.3-0.92-2.7-1.27-3.93l-1.02-3.64-0.25-0.9-0.25-1-0.48-1.96c-1.34-5.17-2.11-10.47-2.72-15.74-0.43-5.31-0.62-10.61-0.19-15.89 0.41-5.25 1.14-10.46 2.45-15.5 0.55-2.55 1.42-5 2.17-7.47 0.91-2.41 1.75-4.84 2.84-7.15 0.98-2.37 2.21-4.59 3.36-6.83 1.28-2.17 2.48-4.39 3.91-6.43 2.71-4.18 5.82-8.02 9.06-11.61 6.53-7.2 13.98-13.11 21.71-18 7.71-4.91 15.82-8.68 23.91-11.66 16.24-5.91 32.65-8.12 47.91-7.78 7.63 0.19 15.01 1.03 22 2.47 6.98 1.47 13.58 3.51 19.7 6 6.12 2.5 11.76 5.43 16.86 8.7s9.58 6.92 13.57 10.63c7.96 7.48 13.72 15.41 17.76 22.73 4.07 7.32 6.6 13.96 8.32 19.4 0.81 2.73 1.52 5.15 1.97 7.29 0.51 2.12 0.93 3.9 1.16 5.32 0.51 2.85 0.78 4.33 0.78 4.33l-1.68 0.39" fill="#bebff1"/></g>
 </g>
</svg>