<?xml version="1.0" encoding="UTF-8" standalone="no"?><svg xmlns="http://www.w3.org/2000/svg" xmlns:xlink="http://www.w3.org/1999/xlink" fill="#000000" height="590.5" preserveAspectRatio="xMidYMid meet" version="1" viewBox="-0.9 0.0 596.7 590.5" width="596.7" zoomAndPan="magnify"><g id="change1_1"><path d="M583.6,338.1c0.9-4.1,1.6-7.8,2.4-11.1c0.4-1.7,0.8-3.2,1.1-4.7c0.3-1.5,0.6-2.8,0.9-4.1 c1.2-5,2.3-8.4,3.3-10.1c2-3.3,3.7,0.6,4.4,12.6c0,0.8,0.1,1.5,0.1,2.3c0,0.8,0,1.6,0,2.4c0,1.7-0.1,3.4-0.1,5.3 c-0.2,3.7-0.3,7.6-0.8,11.8c-0.3,2.1-0.5,4.2-0.8,6.4c-0.1,1.1-0.3,2.2-0.4,3.3c-0.1,1.1-0.3,2.2-0.5,3.4c-0.8,4.5-1.8,9.2-2.8,13.9 c-1.2,4.7-2.5,9.4-3.9,14.2c-1.5,4.7-3.2,9.4-4.8,13.9c-1.8,4.5-3.7,9-5.6,13.3c-0.2,0.5-0.5,1.1-0.7,1.6c-0.3,0.5-0.5,1-0.8,1.6 c-0.5,1-1,2.1-1.5,3.1c-1,2-2.1,4-3.1,5.9c0.8-0.9,1.7-2.2,2.4-3.2c-1.2,2.6-2.3,5.1-3.5,7.5c-1.3,2.4-2.5,4.7-3.7,6.9 c-0.6,1.1-1.2,2.3-1.9,3.4c-0.6,1.1-1.2,2.2-1.9,3.3c-1.3,2.2-2.7,4.3-4,6.4c1.9-2.8,3.8-5.7,5.7-8.6c1.8-3,3.6-5.9,5.3-8.8 c-1.1,1.9-2.1,3.8-3.2,5.7c-1.1,1.9-2.1,3.8-3.2,5.6c-2.3,3.6-4.5,7.2-6.8,10.7c-2.3,3.4-4.7,6.8-7.1,10c-0.6,0.8-1.2,1.6-1.8,2.4 c-0.6,0.8-1.2,1.6-1.8,2.3c-1.2,1.5-2.4,3.1-3.7,4.6c-1.2,1.5-2.4,3-3.6,4.5c-1.2,1.5-2.5,2.8-3.7,4.2c-2.5,2.8-4.9,5.5-7.4,8.1 c-5.1,5-9.8,9.8-14.8,14c-2.2,1.9-5.4,5.2-8.4,7.7c-3.3,3.1-6.3,5.9-9.2,8.3c-2.9,2.3-5.5,4.3-7.7,5.8c-1.1,0.8-2.1,1.4-2.9,1.9 c-0.9,0.5-1.6,0.9-2.3,1.1c-1.2,0.5-1.9,0.5-1.8-0.1c0.1-0.6,0.8-1.7,2.1-3.2c1.3-1.6,3-3.5,5.2-5.8c2.2-2.3,4.8-4.7,7.5-7.6 c1.4-1.4,2.8-2.8,4.3-4.3c1.5-1.5,3-2.9,4.5-4.5c3.8-4.7,7.9-9.7,11.8-15.2c4.1-5.3,8-11.2,12.2-17.2c8-12.2,15.8-25.5,22.8-39.5 c7.1-14,13.2-28.7,18.4-43.3c1.3-3.7,2.7-7.3,3.7-10.9c1.1-3.6,2.3-7.2,3.4-10.8c1-3.6,2-7.2,3-10.7c0.3-0.9,0.5-1.7,0.8-2.6 c0.2-0.9,0.4-1.7,0.6-2.6c0.4-1.7,0.9-3.5,1.3-5.2c-0.6,2.8-1.1,5.5-1.5,7.9c-0.5,2.4-0.9,4.5-1.1,6.2c0.6-1.7,1.1-3.4,1.7-5.1 C581.2,347.8,582.4,343,583.6,338.1z M552,407.7c8.7-17.2,15.6-34.7,20.8-52.7l1.4-3.5l-2.8,0.7l0.1,0.4c-0.8,8.7-2.8,20.3-6.4,32.6 c-0.4,1.5-0.9,3.1-1.3,4.7c-0.2,0.8-0.5,1.6-0.7,2.4c-0.3,0.8-0.5,1.6-0.8,2.3c-1.1,3.1-2.2,6.3-3.4,9.5c-0.5,1.6-1.2,3.2-1.9,4.7 l-2,4.7c-0.7,1.6-1.3,3.1-2,4.7c-0.7,1.5-1.4,3.1-2.2,4.6l-4,8.7c-2,4.2-3,7.1-3,8.2c0,1.3,1.3,0.3,3.4-2.5c0.5-0.7,1.1-1.5,1.7-2.4 c0.6-0.9,1.3-1.9,1.9-3c1.3-2.2,2.7-4.7,4.2-7.5l1.7-3.2c0.6-1.1,1.1-2.2,1.6-3.3l3.1-6.6c0.5-1,1-2,1.5-3.1c0.5-1,0.9-2.1,1.4-3.2 c0.9-2.2,1.9-4.4,2.9-6.7c0.5-1.2,1-2.3,1.5-3.5c0.5-1.2,0.9-2.4,1.3-3.6c0.9-2.4,1.7-4.9,2.6-7.4c0.4-1.3,0.9-2.5,1.3-3.8 c0.4-1.3,0.8-2.6,1.1-3.9c0.7-2.6,1.5-5.2,2.2-7.8l0.5-2l0.4-2c0.3-1.3,0.6-2.6,0.9-3.9c0.6-2.6,1.1-5.2,1.7-7.8 c0.9-5.2,1.6-10.3,2.3-15.1c0.5-4.9,0.8-9.5,1-13.8c0.1-1.1,0.1-2.1,0.1-3.2c0-1,0-2,0-3c0-2-0.1-3.8-0.2-5.6 c-0.1-1.8-0.2-3.4-0.3-4.9c-0.2-1.5-0.4-2.9-0.7-4.1c-0.9-4.5-2.3-0.6-3.5,0.3c-0.4-0.3-0.9,0.2-1.3,1.5c-0.2,0.6-0.4,1.5-0.6,2.5 c-0.2,1-0.5,2.1-0.7,3.4c-0.5,2.6-1,5.8-1.5,9.4c-0.1,0.4-0.1,0.9-0.2,1.4c-0.1,0.5-0.2,0.9-0.2,1.4c-0.2,0.9-0.3,1.9-0.5,2.9 c-0.3,2-0.6,4-0.9,6.2c-2.5,17.1-5,31.7-3.5,33.4c-0.9,2.8-1.9,5.7-2.8,8.5c0.4-2.3,0.9-4.6,1.3-6.9c0,1.3-0.2,3.2-0.6,5.5 c-0.2,1.2-0.4,2.5-0.7,3.8c-0.1,0.7-0.3,1.4-0.4,2.1c-0.2,0.7-0.4,1.4-0.6,2.2c-0.8,2.9-1.7,6.1-2.5,9.2c-0.2,0.8-0.4,1.6-0.7,2.3 c-0.2,0.8-0.5,1.5-0.7,2.3c-0.5,1.5-1,3-1.4,4.4l-1.5,4.2c-0.5,1.4-1,2.8-1.6,4.2l-3.4,8.2c2.6-2.5,5.2-5,7.9-7.6l2.9-9 c-0.4,0.6-1.2,1.8-1.1,1.7c0.7-2.1,1.4-4.2,2-6.3c0.6-2.1,1.2-4.3,1.7-6.4c1.1-4.2,2.3-8.4,3.2-12.8c2-8.6,3.7-17.5,5.2-27.1 c0.5-4,1-8.1,1.3-12.1l0.8-12.1c0-1.6-0.1-2.9-0.3-3.6c-0.2-0.8-0.4-1.1-0.6-1c-0.5,0.2-1,2.1-1.9,5.6l-2.2,10.4 c0.4-1.6,0.7-3.1,1.1-4.7c-0.2,1.5-0.5,3-0.7,4.6c-0.2,1.5-0.6,3-0.9,4.5c-0.6,3-1.3,6.1-1.9,9.1c-0.3,1.5-0.7,3-1.1,4.6l-1.2,4.5 c-0.8,3-1.5,6.1-2.5,9.1c-0.9,3-1.9,6-2.8,8.9c-0.4,1.5-1,3-1.5,4.4c-0.5,1.5-1.1,2.9-1.6,4.4c-2,5.8-4.6,11.4-7,17 c-0.7,1.7-1.6,3.7-2.3,5.4c-0.7,1.7-1.3,3.3-1.5,4.3C549.1,412.5,550.2,411.2,552,407.7z M573.8,324.5c0.9-3.9,1.4-7.7,1.8-13.3 c-0.1-1.4-0.1-2.1-0.1-2.4c-0.3,2.1-0.8,4.9-1.3,7.6C573.3,322,573.1,324.8,573.8,324.5z M575.4,308.8c0.2-1,0.3-1.8,0.4-2.3 c0.1-0.6,0.1-0.9,0.1-0.9c-0.1,0.7-0.3,1.4-0.5,2.1c0,0.6,0,0.6,0,0.6S575.4,308.4,575.4,308.8z M59.2,113.1 c23.7-30.7,53.5-56.6,87.2-75.8C180.1,18,217.8,5.6,256.3,1.2c2.6-0.3,4.7-0.8,4.8-1c0.1-0.2-1.9-0.2-4.3,0.1 c-38.7,4.4-76.4,16.7-110.1,35.9c-33.8,19.1-63.7,45-87.6,75.7c-1.6,2.1-2.8,3.9-2.8,4.3c0.1,0.1,0.4-0.2,0.9-0.7 C57.7,114.9,58.4,114.1,59.2,113.1z M525.3,161.8c-1-1.4-1.2-1.2-0.5,0.4c0.6,1.4,1.8,3.8,2.7,5.2c0.8,1.2,1,1,0.5-0.4 C527.4,165.3,526.2,162.9,525.3,161.8z M502.5,160.5c-0.3-0.9-1.4-2.9-2.5-4.4c-0.7-1-1.4-1.9-2-2.9c-0.7-1-1.3-1.9-2.1-2.8 c-1.4-1.8-2.9-3.7-4.3-5.5c-0.7-0.9-1.4-1.8-2.1-2.7c-0.7-0.8-1.5-1.7-2.2-2.5c-1.5-1.6-2.9-3.3-4.3-4.8c-0.6-0.7-1.1-1.1-1.3-1.1 c-1-1.6-2.9-3.9-4.9-6.1c-22.6-25.2-50-45-80-58.6c-30.1-13.6-62.7-21-96.2-22c16.4-0.1,33.1,1.5,49.7,5c2.1,0.4,4.2,0.9,6.2,1.4 c2.1,0.5,4.2,1,6.2,1.6c1.1,0.2,2.1,0.6,3.1,0.9l3.1,0.9c2.1,0.6,4.2,1.3,6.2,1.9c4.1,1.5,8.2,2.9,12.4,4.5c2,0.9,4.1,1.7,6.1,2.6 c2,0.9,4.1,1.7,6.1,2.7c2.4,1.2,4.9,2.3,7.3,3.5c1.2,0.5,2.4,1.2,3.6,1.8c1.2,0.6,2.4,1.3,3.5,1.9c4.8,2.4,9.2,5.2,13.8,7.9 c1.1,0.7,2.2,1.4,3.3,2.1l3.3,2.2l3.3,2.2c0.5,0.4,1.1,0.7,1.6,1.1l1.6,1.2c2.1,1.6,4.2,3.1,6.3,4.7l1.6,1.2l1.5,1.2l3.1,2.5 l3.1,2.5l1.5,1.2l1.5,1.3c2,1.8,3.9,3.5,5.9,5.3c2,1.7,3.8,3.7,5.7,5.5l2.8,2.8c1,0.9,1.9,1.9,2.8,2.9c3.6,4,7.3,7.9,10.6,12.1 c0.9,1.1,1.7,2.1,2.6,3.2l1.3,1.6c0.4,0.5,0.8,1.1,1.2,1.6c1.6,2.2,3.3,4.4,4.9,6.7c1.4,1.9,2.3,3.1,2.4,2.7c0-0.2-0.2-0.7-0.5-1.4 c-0.4-0.7-1-1.6-1.6-2.5c-1.7-2.3-3.3-4.6-5-6.9c-1.7-2.2-3.5-4.4-5.3-6.6c-0.9-1.1-1.8-2.2-2.6-3.3c-0.9-1.1-1.9-2.1-2.8-3.1 c-1.9-2.1-3.7-4.1-5.6-6.2c-2-2-3.9-3.9-5.8-5.9c-1-1-1.9-2-2.9-2.9l-3-2.8c-2-1.8-4-3.7-6.1-5.5c-2.1-1.7-4.2-3.4-6.3-5.2 c-1.1-0.8-2.1-1.7-3.2-2.5l-3.3-2.4c-2.2-1.6-4.3-3.2-6.5-4.8c-4.5-2.9-8.9-6-13.5-8.7c-2.3-1.3-4.6-2.8-6.9-4l-7.1-3.7 c-1.2-0.6-2.3-1.3-3.5-1.8l-3.6-1.7c-2.4-1.1-4.8-2.3-7.2-3.3c-2.5-1-4.9-2-7.4-3c-1.2-0.5-2.4-1-3.7-1.5l-3.8-1.3 c-2.5-0.9-5-1.8-7.5-2.7c-2.5-0.8-5.1-1.5-7.6-2.3c-1.3-0.4-2.5-0.8-3.8-1.1l-3.9-1c-2.6-0.6-5.2-1.3-7.8-1.9 c-2.6-0.5-5.3-1.1-7.9-1.6c-1.3-0.3-2.6-0.6-4-0.8c-1.3-0.2-2.7-0.4-4-0.6c-2.7-0.4-5.3-0.8-8-1.2c-2.7-0.3-5.4-0.6-8.1-0.9 c-1.4-0.1-2.7-0.3-4.1-0.4c-1.4-0.1-2.7-0.2-4.1-0.2c-2.7-0.2-5.5-0.3-8.3-0.5c-2.8,0-5.5-0.1-8.3-0.1c-1.4,0-2.8,0-4.2-0.1 c-1.4,0-2.8,0.1-4.2,0.1c-2.8,0.1-5.6,0.2-8.5,0.3c-2.8,0.2-5.7,0.4-8.5,0.7c-3.6,0.2-7.2,0.7-10.7,1.1c27.7-5.8,56.3-6.6,84.4-2.7 c21.1,4.4,41.7,11.3,61,21.1c9.7,4.7,19,10.3,28,16.2c4.4,3.1,8.9,6.1,13.1,9.5c2.1,1.7,4.3,3.2,6.4,5l6.2,5.2c2.1,1.7,4,3.6,6,5.4 c2,1.9,4,3.6,5.9,5.6c3.7,3.9,7.6,7.6,11.1,11.8c7.3,8,13.8,16.6,20.1,25.4l4.5,6.7c0.7,1.1,1.5,2.2,2.2,3.4l2.1,3.5 c1.4,2.3,2.8,4.6,4.1,7l3.8,7.1l1.9,3.6l1.7,3.7l3.5,7.3l3.1,7.5l1.6,3.7c0.5,1.3,0.9,2.5,1.4,3.8c1.3,4,2.8,7.1,3.2,6.9 c0.4-0.2-0.4-3.8-1.7-7.8c-0.9-3-2-5.8-3.1-8.7c-1.1-2.9-2.1-5.8-3.4-8.6l-3.7-8.5c-1.3-2.8-2.7-5.6-4.1-8.3 c-5.6-11-11.8-21.8-19-32c-7.2-10.2-14.9-20-23.5-29c-8.6-9-17.7-17.7-27.5-25.4l4.3,3c1.4,1,2.9,2,4.3,3.1l8,6.7 c23.8,21.8,43.7,48,58.2,77c0.7,1.4,1.4,2.7,2,4c0.6,1.3,1.2,2.5,1.8,3.7c1.2,2.4,2.3,4.5,3.4,6.3c1.9,3.6,3.4,5.9,4.2,6 c0.7-0.2,0.4-2.4-0.5-6.1c-0.5-1.8-1.3-3.9-2.2-6.3c-0.9-2.4-1.9-5-3.2-7.7c1,1.7,1.7,3.4,2.6,5.1c0.8,1.8,1.7,2.9,1.6,2.3 c-0.1-0.8-1-3.1-1.8-4.8c-0.4-0.8-0.8-1.6-1.2-2.3l-1.3-2.3c-0.9-1.5-1.7-3-2.6-4.5c-0.9-1.5-1.7-3-2.6-4.5l-2.8-4.3 c-15.2-27.5-35.4-52.3-59.5-72.6c-24-20.4-51.7-36.4-81.4-46.9c32.1,10.7,62.4,28.1,88.4,50.8c26,22.7,47.7,50.8,63.1,82.1 c-0.8-1.2-1.1-1.2-0.5,0.4c0.6,1.4,1.7,4.1,2.5,5.3c0.8,1.4,1,1.1,0.5-0.4c0-0.1,0-0.1-0.1-0.1c15.9,34,24.3,71.6,24.7,109.3 c0,2.2,0.3,4.1,0.6,4c0.3,0,0.4-2.1,0.4-4.5l-0.1-5.9c0-2-0.1-3.9-0.2-5.9l-0.9-11.7l-1.4-11.7c-0.2-1.9-0.6-3.9-0.9-5.8l-1-5.8 c-2.9-15.4-7.2-30.5-12.7-45.1l-2.2-5.4c-0.7-1.8-1.4-3.6-2.2-5.4l-4.9-10.6l-5.4-10.4c-1.9-3.4-3.9-6.7-5.8-10.1 c-8-13.3-17.2-25.9-27.3-37.6c-10.1-11.7-21.3-22.4-33.2-32.1c-12-9.6-24.7-18.2-38.1-25.6c-13.4-7.4-27.3-13.5-41.6-18.5 c-14.3-4.9-29-8.4-43.8-10.7c-6.4-1.3-12.9-1.9-19.4-2.7c0,0,0,0,0,0c-1.9-1.2-6.2-2.4-12.1-3.6c21.4,1,42.6,4.6,63.2,10.6 c20.5,6,40.3,14.7,58.9,25.4c30.7,18.5,57.5,43.2,78.6,72.2c3,4.2,5.8,7.5,6.4,7.3c0.6-0.2-1.6-3.9-4.7-8.4c-0.6-0.9-1.3-1.8-2-2.7 l-2-2.6l-4.1-5.2c-2.8-3.4-5.7-6.8-8.6-10.1c5.3,5.1,9.2,8.1,10.4,7.8c1.2-0.3-0.4-3.8-4-9C525.7,137.1,546.3,172,559,209 c0.7,2.2,1.3,3.3,1.3,2.4c0-0.4-0.1-1.2-0.3-2.2c-0.2-1-0.5-2.1-0.9-3.1c-1.2-3.4-2.3-6.7-3.5-10.1c-0.6-1.7-1.3-3.3-1.9-5l-2-4.9 c-0.7-1.6-1.3-3.3-2-4.9l-2.2-4.8l-2.2-4.8l-1.1-2.4l-1.2-2.3c-1.6-3.1-3.3-6.3-4.9-9.4c-1.8-3.1-3.6-6.1-5.3-9.1 c-1.7-3.1-3.7-6-5.6-8.9l-2.9-4.4c-0.9-1.5-2-2.9-3.1-4.3c-8.1-11.5-17.2-22.2-26.9-32.3l-3.7-3.8l-1.8-1.9l-1.9-1.8l-7.7-7.2 c-5.3-4.5-10.6-9.2-16.2-13.3l-3.2-2.7l-1.6-1.3l-1.6-1.3l-6.6-5c-2.2-1.7-4.5-3.2-6.7-4.8l-6.8-4.7c-9.3-5.9-18.9-11.6-29-16.5 c-2.5-1.2-5-2.5-7.6-3.7c-2.6-1.1-5.2-2.2-7.8-3.3c-1.3-0.6-2.6-1.1-3.9-1.7c-1.3-0.5-2.7-1-4-1.5c-2.7-1-5.4-2-8.1-3 c-11-3.6-22.4-6.8-34.3-9C306.7,5.5,272,6,239.1,12.8c-32.9,6.7-63.9,19.4-91.5,37c-10.1,6.1-20,12.5-29.2,19.8l-3.5,2.7l-1.7,1.4 l-1.7,1.4c-2.2,1.9-4.4,3.8-6.7,5.7c-2.3,1.9-4.3,3.9-6.5,5.9l-3.2,3c-1.1,1-2.1,2-3.1,3.1c0.9-1.4,1.7-2.5,2.1-3.3 c0.4-0.8,0.6-1.4,0.3-1.7c-0.1-0.1-0.4-0.1-0.7,0c14.8-14.5,31.3-27.4,49.2-38.6c10.5-6.4,21.2-12.3,32.3-17.3l4.2-1.9 c0.7-0.3,1.4-0.6,2.1-0.9l2.1-0.8c2.8-1.1,5.6-2.3,8.5-3.4l2.1-0.8l2.2-0.7l4.3-1.5l4.3-1.5l2.1-0.7l2.2-0.6 c5.8-1.7,11.6-3.5,17.5-4.8l4.4-1c1.5-0.3,2.9-0.7,4.4-1c3-0.6,5.9-1.1,8.9-1.7c1.5-0.3,3-0.6,4.4-0.8l4.5-0.6c3-0.4,6-0.8,8.9-1.2 c3-0.3,6-0.5,9-0.8l4.5-0.4c1.5-0.1,3-0.1,4.5-0.2c3-0.1,6-0.2,9-0.3c0.7,0,1.5-0.1,2.2-0.1l2.2,0l4.5,0.1l4.5,0.1 c1.5,0,3,0,4.5,0.1c3,0.2,6,0.4,8.9,0.6c1.5,0.1,3,0.2,4.5,0.3l4.4,0.5l8.9,1c2.9,0.4,5.9,1,8.8,1.4c2.9,0.5,5.9,0.9,8.8,1.6 l8.7,1.9c0.7,0.2,1.5,0.3,2.2,0.5l2.2,0.6l4.3,1.2l4.3,1.2c1.4,0.4,2.9,0.8,4.3,1.3l8.5,2.8c2.8,0.9,5.6,2,8.4,3 c2.8,1.1,5.6,2.1,8.3,3.2l8.2,3.6L415,33l4,2l8,4c2.6,1.4,5.2,2.9,7.8,4.3l3.9,2.2c1.3,0.7,2.5,1.5,3.8,2.3l7.5,4.7 c2.5,1.6,4.9,3.3,7.3,5c2.4,1.7,4.9,3.3,7.2,5.2l7.1,5.4l1.8,1.4l1.7,1.4l3.4,2.9c9.2,7.5,17.6,15.9,25.8,24.5l5.9,6.6 c1,1.1,2,2.2,2.9,3.3l2.8,3.5l5.6,6.9l5.3,7.2c27.9,38.4,46.3,84.1,52.8,131.8c0.2,1.5,0.4,3,0.6,4.4c0.2,1.4,0.3,2.8,0.5,4 c0.3,2.5,0.7,4.7,1.1,6.5c0.4,1.8,0.7,3.1,1.1,3.9c0.3,0.8,0.6,1.1,0.9,0.7c0.6-0.8,0.9-4,0.9-8.6c0-2.3,0-5-0.2-7.8 c-0.3-2.8-0.6-5.9-1-9c-0.2-1.5-0.4-2.9-0.6-4.4c-0.2-1.4-0.5-2.9-0.7-4.3c-0.5-2.9-1-5.7-1.5-8.6l-0.4-2.1 c-0.1-0.7-0.3-1.4-0.5-2.1l-1-4.2c-0.7-2.8-1.3-5.6-2-8.4c-0.8-2.8-1.6-5.5-2.4-8.3c-0.8-2.8-1.5-5.5-2.5-8.2 c-1.9-5.4-3.6-10.8-5.8-16.1c-1.1-2.6-2.1-5.3-3.2-7.9c-1.1-2.6-2.4-5.2-3.5-7.7l-1.8-3.9l-0.9-1.9l-1-1.9l-3.9-7.5 c-0.7-1.2-1.3-2.5-2-3.7l-2.1-3.6l-4.3-7.3c-1.5-2.4-3.1-4.7-4.6-7.1l-2.3-3.5c-0.8-1.2-1.5-2.4-2.4-3.5c-13-18.4-28.1-35.3-45-50.4 c-17-15.1-36-28.2-56.7-39.3c-14.8-7.8-29.7-14.1-44.8-19.1c-1.9-0.6-3.8-1.2-5.7-1.8l-2.8-0.9c-0.9-0.3-1.9-0.6-2.8-0.8 c-3.8-1-7.6-2-11.4-3c-7.7-1.7-15.3-3.4-23-4.5c-30.8-4.9-62.3-4.8-94.9,0.7c-38.2,6.7-73.6,20.5-105.1,40.1 c-31.4,19.7-59,45.1-81.2,75.7c-2.2,3-4.4,6-6.6,9c-2,3.1-4.1,6.3-6,9.5c-1,1.6-1.9,3.3-2.9,4.9c-0.9,1.7-1.8,3.3-2.8,5 c-0.9,1.7-1.9,3.3-2.7,5c-0.8,1.7-1.7,3.4-2.5,5.1c-3.5,6.5-6.4,13.3-9.4,20c-1.4,3.4-2.7,6.8-4.1,10.3c-0.7,1.7-1.3,3.4-1.9,5.2 l-1.8,5.2c-4.6,13.9-8.5,28.1-10.9,42.5c-2.5,14.4-4.2,28.9-4.5,43.4c-0.1,1.8-0.2,3.6-0.2,5.4l0.1,5.4l0.1,5.4c0,1.8,0,3.6,0.2,5.4 l0.7,10.9c0.1,1.8,0.3,3.6,0.5,5.4l0.6,5.4c-1.3-8.6-2-17.3-2.6-25.9c-0.2-4.3-0.3-8.7-0.5-13l0.2-13C4,261,6.1,243.7,9.7,226.7 c3.6-17,8.6-33.7,15.1-49.8c6.4-16.1,14.4-31.6,23.5-46.3c0.7-1.1,1.2-2,1.7-2.9c0.5-0.9,1-1.6,1.3-2.2c0.6-1.2,0.9-1.9,0.5-1.9 c-0.5,0.2-1.4,1.2-2.6,2.7c-1.2,1.5-2.5,3.5-3.8,5.6c-1.6,2.6-3.2,5.1-4.8,7.8l-4.4,7.9c-0.7,1.3-1.5,2.6-2.2,4l-2,4.1l-4,8.2 c-5,11.1-9.7,22.3-13.3,33.8c-3.9,11.5-6.7,23.3-9.2,35.2c-2.1,11.9-4,23.9-4.7,36c-1.7,24.1-0.7,48.4,3.6,72.2 c4.2,23.8,11,47.2,21,69.2c0.4,1.6,0.9,3.3,1.5,5.1c0.6,1.8,1.1,3.8,1.8,5.7c1.5,3.9,3.1,8.2,5,12.7c1,2.2,2.1,4.5,3.2,6.9 c1.1,2.4,2.2,4.8,3.6,7.2c1.3,2.4,2.7,4.9,4.1,7.4c0.7,1.2,1.4,2.5,2.2,3.8c0.8,1.2,1.6,2.5,2.4,3.8c1.6,2.5,3.2,5.1,4.9,7.7 c1.8,2.5,3.6,5,5.4,7.6c0.9,1.3,1.9,2.6,2.8,3.8c1,1.2,2,2.5,3,3.7c2,2.5,4,5,6.1,7.5c2.2,2.4,4.3,4.8,6.5,7.2 c1.1,1.2,2.2,2.4,3.3,3.6l3.5,3.4c2.3,2.3,4.6,4.6,6.9,6.8c2.4,2.1,4.8,4.3,7.2,6.4c14.3,12.3,29,22,44.5,30.3 c-1.7-1.1-3.5-2.1-5.2-3.2c-1.7-1.1-3.4-2.3-5.1-3.4c-1.7-1.1-3.3-2.3-5-3.4c-0.8-0.6-1.7-1.1-2.5-1.7c-0.8-0.6-1.6-1.2-2.4-1.8 c2.4,1.8,5,3.3,7.4,4.9c2.5,1.5,4.9,3,7.3,4.5c2.5,1.4,4.9,2.7,7.3,4c1.2,0.6,2.4,1.3,3.6,1.9c0.6,0.3,1.2,0.6,1.8,0.9 c0.6,0.3,1.2,0.6,1.8,0.9c9.6,4.6,19.1,8.5,28.7,11.8c1.6,0.7,3.2,1.4,5,2.1c21.4,9.8,46.5,16.5,72.4,19.8c3.2,0.5,6.5,0.7,9.8,1 l4.9,0.4c1.6,0.1,3.3,0.3,4.9,0.3c6.6,0.2,13.1,0.6,19.7,0.4c3.3-0.1,6.5-0.1,9.8-0.2c3.3-0.2,6.5-0.4,9.8-0.6 c1.6-0.1,3.2-0.2,4.9-0.3c1.6-0.2,3.2-0.4,4.8-0.5c3.2-0.4,6.4-0.7,9.6-1.1c-1.2-0.4-2.6-0.8-3.7-1.1c1.2-0.1,2.3-0.2,3.4-0.3 c1.1-0.1,2.1-0.2,3.1-0.3c2-0.2,3.9-0.4,5.8-0.5c1.9-0.2,3.9-0.4,6-0.6c2.1-0.3,4.4-0.7,6.9-1.3c-1.5,0.1-2.9,0.3-4.3,0.4 c-1.4,0.1-2.8,0.3-4.3,0.3c0.2,0,0.4-0.1,0.6-0.1c2.8-0.3,5.6-0.8,8.6-1.4c1.5-0.3,3-0.6,4.6-0.8c0.8-0.2,1.6-0.3,2.3-0.5 c0.8-0.2,1.6-0.4,2.3-0.6c3.1-0.8,6.4-1.6,9.6-2.5c0.8-0.2,1.6-0.5,2.5-0.7c0.8-0.3,1.6-0.5,2.4-0.8c1.6-0.5,3.3-1.1,4.9-1.6 c14.8-3.8,30.9-9.5,47.1-17.6c16.2-8,32.6-18.3,48-30.6c15.4-12.3,29.9-26.5,42.6-42.1c12.7-15.6,23.6-32.4,32.5-49.6 c2.7-5.2,4.9-10.3,4.7-11.1c-0.2-0.9-2.5,2.6-5.3,7.8c-11.5,19.9-24.2,36.5-40.3,54.4c-15.1,16.6-31.5,30.8-49.3,43.3 c-17.9,12.4-37.1,23-58.1,32.1c-1.3,0.5-2.5,1-3.8,1.5c-1.3,0.4-2.5,0.9-3.8,1.3c-3.8,1-7.5,2-11.3,2.9c0.5-0.2,1-0.3,1.6-0.5 c2.4-0.8,4.8-1.7,7.2-2.5l3.6-1.3c1.2-0.4,2.4-0.8,3.6-1.3c-0.9,0.3-1.8,0.5-2.7,0.7c18.2-7.3,35.7-16.5,52-27.2 c15.8-9.8,31.3-21.8,45.5-35.8c14.3-14,27.2-29.9,38.2-47.1c11-17.2,19.9-35.6,26.5-54.2c6.6-18.6,10.8-37.4,12.8-55.3 c0.3-1.6,0.5-3.1,0.6-4.4c0.2-1.3,0.2-2.5,0.2-3.4c0-1.9-0.2-2.8-0.6-2.5c-0.4,0.4-0.8,2.1-1.4,4.4c-0.6,2.3-1.2,5.3-1.7,8.4 c-3.6,17.2-8.8,34.3-15.4,50.3c-6.6,16.1-14.6,31.2-23.7,44.7c-0.7,1.1-0.3-1.2-1.7,0.7c-0.8,1-1.5,1.9-2.3,3 c2.4-3.3,4.5-6.9,6.9-10.9c0.9-1.9,1.8-3.7,2.6-5.4c0.7-1.7,1.4-3.2,2-4.7c1.2-2.9,2.2-5.2,3.1-7.2c1.5-4.1,2.5-6.6,3.3-8.7 c0,0,0-0.1,0-0.1c0,0,0,0,0.5-1.3c0.4-1,0.7-1.9,1.1-2.9c0.3-1,0.7-2,1.1-3.3c0,0,0,0-0.1,0c0.2-0.5,0.3-1,0.5-1.6 c1-2.4,2-4.7,2.9-7.1c0.6-1.3,1-2.7,1.3-3.9c0.3-1.2,0.6-2.2,0.7-2.9c0.5-0.9,1-1.8,1.6-3.1c0.6-1.7,1.2-3.2,1.7-4.6 c0.4-1.4,0.8-2.6,1.1-3.7c0.7-2.2,1.2-4,1.8-5.7c0.5-1.8,1.2-3.6,1.7-5.8c0.6-2.3,1.3-5,2.2-8.7c0,0-0.2,0-0.6,0.4 c0.1-0.3,0.3-1.7,0.7-3.7c0.3-2,0.8-4.7,1.3-7.6c0.5-2.8,0.7-4.2,1.2-6.6c0.4-2.4,0.9-5.9,1.9-12.9c0,0,0,0-1.6,6.6c0,0,0,0,1.3-5.8 c0,0,0,0-1.1,1.4c0,0,0,0,1.3-2.6c0,0,0,0-0.1-0.3c0-0.3-0.1-1-0.4-2.3c0,0,0,0,3-11.6c0.1-0.9,0-3.1-0.1-8.6c0,0-0.2-1.5-0.4-2.6 c-0.3-0.1-0.3-0.1-1-4.8c0,0-0.3-0.1-0.6,0.4c-0.3,1.4-0.3,1.4-1.1,1.8c0,0-0.4,1.6-0.7,3.9c-0.1,1.1-0.2,1.8-0.3,3.3 c-0.1,0.7-0.1,1.6-0.3,2.9c-0.1,0.6-0.1,1.3-0.2,2.1c-0.1,0.8-0.2,1.7-0.4,2.7c-0.1-0.7-0.2-1.4-0.3-2c-1.4-1.7-1.4-1.6-5.6,8.3 c0,0-0.3,1.4-0.9,3.9c-0.6,2.5-1.5,6.1-2.4,10.6c-0.2,1.3-0.4,2.4-0.6,3.5c-0.2,1-0.4,1.9-0.5,2.7c-0.3,1.6-0.6,3-0.9,4.4 c-0.6,2.8-1.1,5.8-2.7,11.7c0,0-0.7,2.6-1.9,7c-0.6,1.6-1.1,2.5-1.5,3.4c-0.4,0.8-0.8,1.6-1.4,2.7c0,0,0,0,0,0.1 c0.6-2.2,1.2-4.4,1.4-6.3c0.7-5.4,0.1-6.3-1.5-2.1c-0.5-3.2-1.4-4-2.7-3.2c-0.6,0.4-1.4,1.2-2.1,2.3c-0.4,0.6-0.8,1.2-1.2,1.9 c-0.4,0.7-0.9,1.5-1.4,2.3c-0.1-1.2-0.2-2.1-0.5-2.7c-0.3-0.6-0.6-0.9-1.1-0.8c0-4.4-0.2-8-0.7-10.8c-0.1-0.7-0.2-1.4-0.4-2 c-0.2-0.6-0.3-1.2-0.5-1.7c-0.4-1-0.8-1.9-1.2-2.5l-1.8-1.3c-2,2.1-4.9,8.6-8.5,18.1l-1.3,2.8l-0.8-3.2c-1,1.4-2,3-3,4.7 c-1,1.7-2,3.6-3.2,5.5c-1.2,1.9-2.4,4-3.6,6c-0.6,1-1.2,2.1-1.8,3.1c-0.7,1-1.3,2.1-2,3.1c-1.3,2.1-2.7,4.2-4,6.3 c-1.4,2-2.8,4-4.2,5.9c-2.7,3.9-5.7,7.3-8.2,10.2l-1.7,2.3c-0.6,0.8-1.2,1.5-1.9,2.2l-3.7,4.3c-0.7,0.8-1.4,1.6-2.2,2.5 c-0.8,0.9-1.6,1.8-2.5,2.8c-1.7,2-3.5,4.2-5.4,6.5c-2,2.3-4.1,4.8-6.2,7.5c-2.3,2.6-4.6,5.3-7,8.1c-1.7,2-3.6,3.8-5.3,5.8l-2.7,2.9 l-2.8,2.7c-2.3,2.4-4.5,4.8-6.9,7c0.7-0.8,1.3-1.6,1.9-2.4c0.6-0.8,1.1-1.6,1.7-2.4c1.1-1.5,2-3,2.9-4.3c1.8-2.6,2.9-5.1,3.6-7 c1.5-3.9,1.3-6-0.9-5.8c-1.8,0.1-4.8,1.8-8.6,4.6c-2,1.3-4.2,2.9-6.5,4.8c-1.2,1-2.4,1.9-3.8,2.8c-1.3,1-2.7,2-4.1,3.1 c-0.7,0.5-1.4,1.1-2.1,1.7c-0.7,0.5-1.5,1.1-2.3,1.6c-1.5,1.1-3.1,2.3-4.6,3.5c-0.8,0.6-1.6,1.2-2.4,1.8c-0.8,0.6-1.7,1.2-2.5,1.8 c-0.8,0.6-1.7,1.2-2.6,1.8c-0.9,0.6-1.7,1.3-2.6,1.8c-3.6,2.3-7.2,5-11.1,7.3c-1.9,1.2-3.8,2.5-5.8,3.7c-2,1.2-4,2.4-6,3.6 c-21.8,12.3-45.6,20.5-70,24.4c-12.2,1.9-24.6,2.7-37.1,2.4c-12.4-0.2-24.8-1.5-36.9-3.9c-24.3-4.9-47.8-14.1-69.3-27.2 c-10.8-6.6-21-14.1-30.6-22.6c-9.6-8.5-18.5-17.9-26.5-28.1c-23.8-30.3-38.9-65.4-44.3-102c-0.3-2.3-0.7-4.6-1-6.9l-0.6-6.9 l-0.3-3.5l-0.1-3.5l-0.3-7c-0.1-2.3,0-4.7,0-7l0-3.5l0-1.8l0.1-1.7c0.3-4.6,0.4-9.3,1.1-14c0.3-2.3,0.5-4.7,0.8-7 c0.4-2.3,0.8-4.6,1.2-6.9l0.6-3.5l0.8-3.4c0.5-2.3,1-4.6,1.5-6.9c0.6-2.3,1.3-4.6,1.9-6.8l0.9-3.4c0.4-1.1,0.7-2.3,1.1-3.4 c0.7-2.3,1.5-4.5,2.2-6.8c0.9-2.2,1.7-4.5,2.6-6.7l1.1-3.2c0.4-1.1,0.9-2.1,1.3-3.2c0.9-2.1,1.7-4.2,2.6-6.4 c0.9-2.1,1.9-4.1,2.9-6.2c1-2.1,1.9-4.2,3-6.2c1.1-2,2.1-4,3.2-6.1c0.5-1,1.1-2,1.7-3l1.7-2.9c2.2-4,4.8-7.8,7.3-11.6l0.9-1.4l1-1.4 l2-2.8l2-2.8c0.7-0.9,1.3-1.9,2.1-2.7c2.9-3.5,5.6-7.2,8.7-10.6c1.5-1.7,3-3.5,4.5-5.1l4.7-4.9c0.8-0.8,1.6-1.7,2.4-2.5l2.5-2.3 l5-4.7l5.2-4.5l2.6-2.2c0.9-0.7,1.8-1.4,2.7-2.1l5.4-4.2c1.8-1.4,3.7-2.6,5.6-4c3.7-2.7,7.6-5.1,11.4-7.6l1.4-0.9l1.5-0.8l3-1.7 l3-1.7c1-0.6,2-1.2,3-1.7l6.1-3.1c1-0.5,2-1.1,3.1-1.5l3.1-1.4l6.3-2.8l6.4-2.5l3.2-1.3c1.1-0.4,2.2-0.7,3.3-1.1l6.6-2.2 c1.1-0.4,2.2-0.7,3.3-1l3.3-0.9l3.3-0.9l1.7-0.5l1.7-0.4c30.3-7.4,58.8-9,86-6.2c13.6,1.4,27,3.9,40.3,7.6 c13.3,3.8,26.5,8.8,39.5,15.5c1.5,0.7,1.8,0.6,1.1,0c-1.1-0.9-3.1-2.1-4.5-2.7c-5.1-2.8-10.4-5.2-15.7-7.6l-8-3.3 c-2.7-1.2-5.4-2.1-8.1-3c-5.4-2.1-11-3.6-16.5-5.3c-2.8-0.7-5.6-1.4-8.4-2.1c-1.4-0.3-2.8-0.8-4.2-1l-4.3-0.8l-4.3-0.8 c-0.7-0.1-1.4-0.3-2.1-0.4l-2.1-0.3c-2.9-0.4-5.7-0.8-8.6-1.2c-2.9-0.3-5.8-0.5-8.6-0.8c-1.4-0.1-2.9-0.3-4.3-0.4l-4.3-0.2l-4.3-0.2 c-1.4-0.1-2.9-0.2-4.3-0.1c-2.9,0-5.8,0-8.7,0.1c-1.5,0-2.9,0.1-4.4,0.2l-4.4,0.3l-4.4,0.2c-1.5,0.1-2.9,0.3-4.3,0.4 c-2.9,0.3-5.8,0.6-8.7,0.9c-2.9,0.5-5.7,0.9-8.6,1.4l-2.2,0.3c-0.7,0.1-1.4,0.3-2.1,0.4l-4.3,0.9l-4.3,0.9c-1.4,0.3-2.8,0.7-4.2,1.1 c-11.4,2.7-22.5,6.6-33.3,11l-4.1,1.7c-1.4,0.6-2.7,1.1-4,1.8c-2.7,1.3-5.3,2.5-8,3.8c-5.2,2.8-10.5,5.5-15.5,8.6 c-10.2,6.1-20.1,13-29.3,20.7c-2.2,1.7-4.2,3.6-6.3,5.4c-2,1.8-4.2,3.6-6.1,5.5c-2,1.9-3.9,3.8-5.9,5.6c-1.9,1.9-3.7,3.9-5.6,5.9 c-0.9,0.8-1.8,1.7-2.8,2.8c-1.6,1.8-3.3,3.6-4.9,5.5c-0.8,0.9-1.7,1.8-2.5,2.7l-2.3,2.9l-4.7,5.7l-4.4,5.9l2.9-4.2l1.5-2.1l1.6-2 c2.1-2.7,3.9-5.3,5.2-7.3c1.3-2,2.1-3.4,1.9-3.9c-0.3-0.2-1.2,0.3-2.4,1.3c7.7-10.1,16.3-19.5,25.4-28.2l3.4-3.3 c1.2-1.1,2.4-2.1,3.5-3.1l3.6-3.1l1.8-1.6L152,99c2.5-2,4.9-3.9,7.4-5.9l7.7-5.5c6.3-4,12.2-7.7,17.3-10.8 c26.3-12.7,54.8-20.6,83.8-22.9l7.2-0.3c1.2-0.1,2.4-0.2,3.5-0.2c1.2,0,2.3-0.1,3.5-0.1c2.3-0.1,4.5-0.2,6.5-0.4 c1-0.1,2-0.2,2.9-0.3c0.9-0.1,1.8-0.1,2.7-0.2c1.7-0.1,3.1-0.3,4.3-0.6c1.5-0.3,2.4-0.6,2.9-0.9c16.7,0.3,33.5,2.3,49.9,6.1 c16.4,3.9,32.4,9.5,47.6,16.6c30.4,14.3,57.6,34.8,79.6,58.6c0.6,0.6,1.1,1.1,1.5,1.5c0.4,0.4,0.8,0.8,1.1,1.1 c0.6,0.5,0.9,0.6,0.9,0.3c0.7,1,1.7,2.3,2.6,3.4c1.3,1.4,2.7,2.9,4,4.5c1.3,1.6,2.6,3.3,3.9,4.9c0.7,0.8,1.3,1.7,2,2.6 c0.7,0.9,1.4,1.7,2,2.7c1.3,1.8,2.6,3.7,3.9,5.6C502.1,160.6,502.9,161.4,502.5,160.5z M447.1,519.2c-1.2,0.6-2.2,1.1-2.9,1.4 c-0.7,0.3-1.1,0.5-1.1,0.5c1.1-0.4,2.1-0.8,2.9-1.2c0.8-0.4,1.5-0.7,2.1-0.9c1.2-0.5,2-0.9,2.6-1.1c1.1-0.5,1.1-0.5,1.1-0.5 c2.1-1.3,4-2.4,5.7-3.5c-0.5,0.3-1,0.6-1.7,0.9C452.6,516.4,449.4,518,447.1,519.2z M527.1,422.3c0.6-0.6,1.2-1.4,1.9-2.2 c0,0-0.4,0.4-0.9,1.2c-0.6,0.7-1.5,1.7-2.5,2.9c0,0,0,0,0-0.1C526,423.5,526.5,422.9,527.1,422.3z M6.5,320.8 c1.3,15.6,3.8,31,7.5,46.2c2.7,9.7,5.9,19.2,9.6,28.6c-6.8-19.4-11.7-39.5-14.5-59.9c-2.8-20.4-3.6-41-2.3-61.7 C5.5,289.6,5.3,305.2,6.5,320.8z M512.3,469.4c-1.5,1.8-3,3.6-4.6,5.4c-1.6,1.8-3.2,3.6-4.9,5.4c-0.8,0.9-1.6,1.8-2.4,2.7 c-0.9,0.9-1.7,1.7-2.6,2.6c-3.5,3.5-6.8,7.1-10.5,10.3c-1.8,1.6-3.6,3.3-5.4,4.9l-1.3,1.2l-1.4,1.2c-0.9,0.8-1.8,1.5-2.7,2.3 c-16.1,13.4-33.4,24.9-51.5,34.4c2-1.2,4.1-2.5,6.2-3.8c2-1.3,6-3.5,3.5-2.8c16.6-9.6,32.4-21.2,47-34.8c2.7-2.6,5.4-5.1,7.9-7.7 c2.5-2.7,4.9-5.3,7.2-8c1.6-1.2,3.1-2.5,4.7-3.9c1.6-1.4,3.2-2.8,4.9-4.3c0.8-0.7,1.7-1.5,2.5-2.3c0.8-0.8,1.7-1.7,2.5-2.5 c1.7-1.7,3.5-3.6,5.3-5.6C515.3,465.8,513.8,467.6,512.3,469.4z M569.7,333.9c-0.5-4-0.5-4-0.5-4c-0.2,0.6-0.3,1.1-0.5,1.7 C569.3,332.9,569.7,333.9,569.7,333.9z M567.3,328.3c0.2-1,0.3-1.9,0.5-2.9C567.3,326.3,567,327.2,567.3,328.3z M563.5,348 c-0.4,1.2-0.8,2.1-1.4,3.6C562.1,351.5,562.1,351.5,563.5,348z M529,360.8l1,5.6c0.3,1.9,0.5,3.7,0.7,5.6l-0.9-5.2l-1.2-5.2 L529,360.8z" fill="#ff99c2"/></g></svg>