<?xml version="1.0" encoding="UTF-8" standalone="no"?><svg xmlns="http://www.w3.org/2000/svg" xmlns:xlink="http://www.w3.org/1999/xlink" fill="#000000" height="19.1" preserveAspectRatio="xMidYMid meet" version="1" viewBox="0.0 0.0 165.7 19.1" width="165.7" zoomAndPan="magnify"><defs><clipPath id="a"><path d="M 0 0 L 165.699219 0 L 165.699219 19.101562 L 0 19.101562 Z M 0 0"/></clipPath></defs><g><g id="change1_1"><path d="M 99.433594 13.359375 L 99.359375 13.429688 L 99.433594 13.359375" fill="#5ce1e6"/></g><g id="change1_2"><path d="M 102.847656 7.664062 L 103.253906 7.652344 C 102.988281 7.644531 102.886719 7.648438 102.847656 7.664062" fill="#5ce1e6"/></g><g id="change1_3"><path d="M 78.820312 14.367188 L 78.867188 14.351562 C 78.550781 14.355469 78.117188 14.363281 77.417969 14.375 L 78.820312 14.367188" fill="#5ce1e6"/></g><g id="change1_4"><path d="M 61.449219 9.972656 L 60.992188 10.019531 C 61.199219 10 61.332031 9.992188 61.449219 9.972656" fill="#5ce1e6"/></g><g id="change1_5"><path d="M 72.914062 7.441406 C 72.777344 7.46875 72.550781 7.480469 72.332031 7.492188 C 72.609375 7.492188 72.835938 7.488281 72.914062 7.441406" fill="#5ce1e6"/></g><g id="change1_6"><path d="M 74.988281 14.691406 L 74.40625 14.589844 C 74.417969 14.632812 74.621094 14.675781 74.988281 14.691406" fill="#5ce1e6"/></g><g id="change1_7"><path d="M 95.574219 16.882812 L 95.527344 16.847656 L 95.574219 16.882812" fill="#5ce1e6"/></g><g id="change1_8"><path d="M 87.683594 14.878906 C 87.507812 14.867188 87.304688 14.851562 87.097656 14.832031 C 87.34375 14.867188 87.65625 14.914062 87.683594 14.878906" fill="#5ce1e6"/></g><g id="change1_9"><path d="M 86.820312 14.820312 C 86.910156 14.824219 87.003906 14.828125 87.097656 14.832031 C 86.945312 14.8125 86.816406 14.800781 86.820312 14.820312" fill="#5ce1e6"/></g><g id="change1_10"><path d="M 3.261719 2.5625 C 2.660156 2.578125 2.148438 2.667969 1.613281 2.742188 L 3.261719 2.5625" fill="#5ce1e6"/></g><g id="change1_11"><path d="M 127.605469 8.324219 L 127.472656 8.359375 C 127.597656 8.351562 127.617188 8.335938 127.605469 8.324219" fill="#5ce1e6"/></g><g id="change1_12"><path d="M 2.542969 3.386719 L 2.117188 3.382812 C 2.273438 3.394531 2.410156 3.394531 2.542969 3.386719" fill="#5ce1e6"/></g><g id="change1_13"><path d="M 78.964844 12.757812 C 79.5625 12.65625 80.796875 12.722656 80.785156 12.636719 C 80.148438 12.671875 79.246094 12.625 78.964844 12.757812" fill="#5ce1e6"/></g><g id="change1_14"><path d="M 2.542969 3.386719 L 3.035156 3.390625 L 2.886719 3.351562 C 2.777344 3.367188 2.664062 3.382812 2.542969 3.386719" fill="#5ce1e6"/></g><g id="change1_15"><path d="M 134.171875 0.878906 L 134.195312 0.882812 L 134.335938 0.871094 Z M 134.171875 0.878906" fill="#5ce1e6"/></g><g id="change1_16"><path d="M 130.496094 0.585938 C 130.753906 0.585938 131.003906 0.585938 131.28125 0.585938 C 130.867188 0.558594 130.648438 0.566406 130.496094 0.585938" fill="#5ce1e6"/></g><g id="change1_17"><path d="M 1.613281 2.742188 L 0.667969 2.847656 C 1.007812 2.824219 1.316406 2.785156 1.613281 2.742188" fill="#5ce1e6"/></g><g id="change1_18"><path d="M 90.898438 0.152344 C 91.027344 0.148438 91.144531 0.144531 91.261719 0.140625 C 91.105469 0.140625 90.984375 0.144531 90.898438 0.152344" fill="#5ce1e6"/></g><g id="change1_19"><path d="M 75.707031 7.480469 C 75.796875 7.488281 75.917969 7.496094 76.027344 7.5 C 76.058594 7.480469 76.039062 7.464844 75.707031 7.480469" fill="#5ce1e6"/></g><g id="change1_20"><path d="M 48.53125 10.875 L 48.519531 10.878906 Z M 48.53125 10.875" fill="#5ce1e6"/></g><g id="change1_21"><path d="M 49.960938 10.640625 C 49.507812 10.660156 48.867188 10.78125 48.53125 10.875 C 48.984375 10.835938 49.40625 10.78125 49.960938 10.640625" fill="#5ce1e6"/></g><g id="change1_22"><path d="M 45.460938 8.945312 L 45.324219 8.953125 L 45.574219 11.152344 L 45.605469 11.152344 L 45.574219 11.152344 L 45.324219 8.953125 L 45.460938 8.945312" fill="#5ce1e6"/></g><g id="change1_23"><path d="M 74.613281 10.015625 L 74.613281 10.007812 L 74.597656 10.015625 Z M 74.613281 10.015625" fill="#5ce1e6"/></g><g id="change1_24"><path d="M 68.8125 10.078125 C 68.710938 10.0625 68.566406 10.050781 68.414062 10.042969 C 68.511719 10.0625 68.644531 10.074219 68.8125 10.078125" fill="#5ce1e6"/></g><g id="change1_25"><path d="M 59.835938 7.152344 L 59.828125 7.15625 L 59.859375 7.152344 Z M 59.835938 7.152344" fill="#5ce1e6"/></g><g clip-path="url(#a)" id="change1_39"><path d="M 114.699219 4.484375 C 109.1875 4.523438 102.046875 4.574219 96.585938 4.613281 C 95.394531 4.8125 93.660156 4.839844 91.917969 4.914062 L 91.730469 4.671875 L 90.277344 4.785156 C 89.683594 4.722656 91.394531 4.710938 90.34375 4.640625 L 89.796875 4.808594 C 89.683594 4.714844 86.058594 4.855469 88.496094 4.605469 L 82.839844 4.800781 C 81.589844 4.847656 82.117188 5.035156 80.730469 5.039062 C 80.449219 4.980469 81.226562 4.964844 81.109375 4.882812 C 76.945312 4.910156 76.339844 5.613281 72.472656 5.773438 L 72.796875 5.71875 C 72.472656 5.773438 71.996094 5.820312 71.601562 5.863281 C 71.207031 5.90625 70.890625 5.9375 70.882812 5.953125 C 71.398438 6.164062 71.566406 5.761719 72.753906 5.824219 C 72.664062 6.039062 71.296875 6.046875 71.382812 6.199219 C 70.476562 6.195312 69.957031 6.351562 69.167969 6.429688 C 67.820312 6.410156 65.90625 6.671875 64.882812 6.601562 C 64.234375 6.726562 63.519531 6.996094 62.113281 7.140625 C 61.089844 7.074219 62.335938 6.960938 60.957031 7.035156 L 60.746094 7.179688 C 59.621094 7.269531 59.792969 7.21875 59.828125 7.15625 C 58.625 7.273438 58.84375 7.425781 57.328125 7.5 L 58.15625 7.296875 C 57.046875 7.457031 56.589844 7.484375 55.035156 7.636719 C 55.0625 7.5625 55.683594 7.503906 56.144531 7.476562 C 55.28125 7.382812 54.707031 7.707031 54.25 7.734375 C 54.386719 7.773438 55.464844 7.683594 54.949219 7.859375 C 54.179688 7.917969 53.328125 8.195312 52.761719 8.113281 L 53.589844 7.90625 C 51.992188 8.171875 52.746094 8.148438 50.902344 8.300781 C 51 8.28125 50.949219 8.257812 50.984375 8.226562 C 49.835938 8.507812 48.296875 8.535156 46.574219 8.714844 L 46.898438 8.644531 C 46.207031 8.765625 45.835938 8.914062 45.460938 8.945312 C 46.449219 8.90625 46.1875 8.972656 46.289062 9.078125 C 45.9375 9.0625 45.636719 9.089844 45.34375 9.136719 L 45.550781 10.972656 C 46.363281 10.847656 47.117188 10.546875 48.679688 10.480469 C 48.648438 10.550781 48.152344 10.683594 47.5625 10.675781 C 46.882812 10.949219 46.796875 11.128906 45.597656 11.355469 L 45.300781 8.75 L 45.371094 8.734375 L 45.300781 8.746094 L 45.597656 11.359375 C 46.371094 11.230469 47.246094 11.113281 47.0625 11.21875 L 47.289062 11 C 47.773438 10.953125 48.15625 10.914062 48.519531 10.878906 C 48.714844 10.734375 47.523438 10.777344 48.636719 10.589844 C 49.898438 10.417969 49.328125 10.726562 49.519531 10.621094 C 51.253906 10.398438 50.222656 10.34375 51.90625 10.28125 C 51.742188 10.308594 51.414062 10.363281 51.269531 10.359375 C 52.480469 10.351562 54.230469 10.109375 54.597656 10.324219 C 54.421875 10.386719 54.394531 10.453125 53.933594 10.46875 L 53.949219 10.429688 C 52.636719 10.6875 55.054688 10.3125 54.652344 10.550781 C 54.550781 10.429688 56.25 10.367188 57.015625 10.34375 L 56.765625 10.21875 C 59.292969 9.675781 56.640625 10.5 59.15625 10.335938 C 60.75 10.171875 58.550781 10.324219 59.527344 10.179688 C 60.609375 10.15625 61.015625 10.28125 62.59375 10.164062 C 63.035156 10.207031 63.9375 10.261719 64.019531 10.417969 C 64.976562 10.332031 66.941406 10.421875 67.484375 10.265625 C 65.835938 10.15625 65.847656 10.460938 63.921875 10.296875 L 64.457031 10.132812 C 65.789062 10.105469 67.492188 10 68.414062 10.042969 C 68.226562 10.019531 68.144531 9.980469 68.261719 9.945312 C 70.15625 9.859375 70.707031 9.703125 72.554688 9.734375 C 72.796875 9.871094 71.714844 9.855469 70.925781 9.878906 C 72.121094 9.980469 72.171875 9.875 74.023438 9.910156 C 74.121094 10.03125 72.777344 9.910156 72.566406 10.03125 L 74.613281 9.980469 L 74.613281 10.007812 C 74.910156 9.796875 76.175781 10.019531 77.429688 9.953125 C 80.402344 9.949219 80.855469 9.671875 82.5 9.5 C 82.945312 9.554688 83.074219 9.609375 82.886719 9.660156 C 82.15625 9.570312 82.285156 9.644531 82.03125 9.695312 C 83.035156 9.671875 84.230469 9.894531 83.667969 9.976562 C 85.265625 9.914062 83.09375 9.871094 84.070312 9.804688 L 86.253906 9.804688 C 85.996094 9.703125 85.226562 9.683594 86.355469 9.597656 C 87.308594 9.5625 87.773438 9.578125 89.019531 9.574219 C 88.839844 9.628906 89.414062 9.730469 88.476562 9.734375 C 89.082031 9.765625 90.023438 9.765625 90.386719 9.65625 C 89.019531 9.582031 92.621094 9.53125 91.601562 9.382812 L 92.96875 9.457031 C 92.65625 9.460938 92.621094 9.53125 92.164062 9.515625 C 92.554688 9.671875 93.28125 9.453125 93.746094 9.433594 C 94.222656 9.453125 95.460938 9.476562 95.558594 9.539062 C 95.988281 9.492188 97.035156 9.546875 97.226562 9.632812 C 97.867188 9.609375 97.28125 9.527344 97.46875 9.480469 L 99.636719 9.550781 C 99.746094 9.644531 99.921875 9.894531 99.59375 9.917969 C 100.414062 9.863281 99.894531 9.664062 101.132812 9.71875 C 100.414062 9.859375 102.765625 9.921875 101.726562 10.082031 C 102.429688 10.234375 104.449219 10.324219 105.5625 10.351562 C 106.257812 10.261719 104.363281 10.203125 104.441406 10.070312 C 107.570312 10.203125 107.789062 9.84375 110.074219 10.097656 L 109.484375 10.007812 C 110.921875 10.050781 110.757812 10.0625 111.601562 10.023438 C 111.1875 10.160156 113.1875 10.621094 115.46875 10.949219 C 115.679688 10.890625 114.214844 10.585938 114.605469 10.507812 L 116.136719 10.726562 C 116.242188 10.765625 116.074219 10.757812 115.871094 10.75 C 116.707031 10.855469 117.40625 11.121094 117.890625 11.296875 L 118.035156 9.679688 C 117.660156 9.710938 117.378906 9.75 117.230469 9.851562 L 115.78125 9.792969 L 116.355469 9.824219 C 116.171875 9.9375 114.609375 10.167969 114.289062 10.238281 C 112.703125 10.535156 112.113281 10.535156 111.226562 10.527344 C 111.511719 10.566406 112.226562 10.644531 110.96875 10.820312 C 110.949219 10.542969 108.316406 11.023438 108.335938 10.871094 C 107.828125 10.929688 106.914062 10.945312 106.867188 11.066406 L 106.9375 10.882812 C 106.84375 11.140625 104.984375 11.320312 103.566406 11.507812 C 103.859375 11.148438 102.007812 11.679688 101.351562 11.441406 C 101.101562 11.695312 98.832031 11.75 98.59375 11.964844 C 97.5 12.070312 97.59375 11.851562 97.308594 11.800781 L 96.804688 11.925781 C 96.242188 11.867188 94.183594 12.011719 92.953125 12.019531 L 91.828125 12.296875 L 91.402344 12.230469 C 91.21875 12.292969 90.277344 12.382812 90.867188 12.417969 L 90.25 12.445312 C 90.214844 12.660156 89.390625 12.5625 88.15625 12.71875 C 87.871094 12.699219 87.941406 12.644531 88.210938 12.601562 C 87.59375 12.632812 87.851562 12.507812 87.511719 12.453125 C 87.953125 12.484375 85.316406 12.957031 86.980469 12.96875 C 87.097656 13.046875 86.132812 13.167969 85.523438 13.15625 L 85.148438 12.976562 L 84.429688 13.214844 C 83.480469 13.28125 83.070312 13.179688 82.300781 13.179688 C 83.085938 13.140625 84.035156 12.746094 82.003906 12.820312 C 83.070312 12.761719 83.589844 12.625 84.140625 12.5625 C 83.71875 12.574219 83.511719 12.5625 84.160156 12.453125 C 82.578125 12.582031 83.636719 12.601562 82.070312 12.679688 C 82.148438 12.503906 81.710938 12.460938 80.339844 12.449219 L 81.367188 12.542969 L 81.171875 12.59375 C 81.558594 12.601562 81.671875 12.625 81.757812 12.6875 C 81.449219 12.695312 79.945312 12.96875 79.679688 12.867188 C 81.265625 13.097656 76.929688 13.144531 77.941406 13.28125 C 77.765625 13.339844 76.664062 13.371094 76.550781 13.28125 C 77.863281 13.132812 75.558594 13.097656 75.773438 12.972656 C 75.285156 13.03125 76.804688 13.089844 76.144531 13.164062 C 75.363281 13.1875 74.789062 13.085938 74.351562 13.039062 L 74.679688 13 L 73.46875 12.929688 C 73.273438 13.015625 74.640625 13.074219 73.527344 13.121094 C 73.234375 13.085938 72.121094 13.136719 72.15625 13.066406 C 72.683594 12.945312 72.300781 12.785156 73.246094 12.753906 C 72.859375 12.761719 72.058594 12.785156 71.464844 12.796875 L 71.464844 14.960938 C 72.082031 14.933594 72.472656 14.890625 71.960938 14.804688 L 72.898438 14.8125 C 72.308594 14.738281 70.660156 14.601562 72.542969 14.582031 L 72.527344 14.617188 L 73.835938 14.492188 L 74.40625 14.589844 C 74.390625 14.546875 74.597656 14.507812 75.082031 14.519531 C 75.207031 14.570312 75.664062 14.601562 75.625 14.671875 C 77.03125 14.699219 76.917969 14.609375 77.105469 14.5625 C 77.890625 14.574219 78.183594 14.628906 77.8125 14.714844 C 78.886719 14.773438 80.761719 14.855469 81.484375 15.003906 C 82.921875 15.039062 81.195312 14.945312 82.039062 14.894531 C 83.257812 15.269531 86.75 15.441406 89.0625 15.808594 C 88.480469 15.4375 89.695312 15.890625 90.164062 15.726562 C 89.65625 15.707031 92.304688 16.34375 90.28125 16.03125 C 90.695312 16.089844 91.101562 16.175781 91.511719 16.246094 C 92.316406 16.554688 89.46875 15.949219 90.695312 16.394531 C 92.058594 16.660156 93.019531 16.566406 94.59375 17.0625 C 94.015625 17.105469 95.832031 17.328125 95.382812 17.421875 C 95.035156 17.402344 94.601562 17.265625 94.148438 17.160156 L 94.417969 17.269531 C 97.347656 18.109375 95.332031 17.273438 96.90625 17.59375 C 98.707031 18.101562 98.265625 18.179688 98.34375 18.289062 C 98.605469 18.417969 99.507812 18.671875 99.984375 18.800781 C 98.875 18.53125 98.027344 18.019531 98.5625 18.066406 C 99.28125 18.511719 101.171875 19 101.683594 19.101562 C 99.25 17.964844 99.953125 18.441406 97.636719 17.433594 C 97.28125 17.402344 97.285156 17.589844 95.859375 17.097656 C 96.796875 17.257812 95.828125 16.976562 95.574219 16.882812 C 95.824219 17.066406 94.550781 16.648438 94.09375 16.589844 C 93.703125 16.40625 95.035156 16.546875 93.550781 16.152344 L 93.210938 16.339844 C 92.636719 16.167969 93.503906 16.207031 92.242188 15.988281 C 92.949219 16 92.085938 15.730469 93.785156 16.082031 C 91.820312 15.382812 90.652344 15.53125 89.058594 15.347656 C 89.222656 15.359375 89.246094 15.328125 89.410156 15.339844 C 89.058594 15.34375 88.449219 15.242188 87.976562 15.191406 C 86.933594 14.976562 88.824219 15.199219 88.5625 15.085938 L 86.859375 14.84375 L 86.820312 14.820312 C 86.367188 14.800781 85.933594 14.769531 85.785156 14.6875 C 86.304688 14.664062 86.515625 14.605469 86.867188 14.578125 L 85.046875 14.539062 C 85.257812 14.472656 83.578125 14.242188 84.867188 14.308594 C 83.976562 14.230469 83.085938 14.148438 82.195312 14.097656 L 81.984375 13.90625 C 81.339844 13.886719 81.320312 13.917969 82.085938 14 C 81.171875 13.867188 78.011719 14.070312 78.511719 13.75 C 76.402344 13.808594 75.644531 13.738281 73.097656 13.800781 C 75.058594 13.644531 70.855469 13.589844 72.929688 13.519531 C 72.226562 13.472656 71.84375 13.519531 71.460938 13.570312 L 71.460938 14.191406 C 71.738281 14.152344 72.015625 14.109375 72.417969 14.097656 C 73.316406 14.171875 72.914062 14.34375 71.945312 14.410156 L 73.085938 14.328125 L 73.0625 14.363281 L 74.054688 14.261719 C 75.105469 14.347656 74.277344 14.433594 75.363281 14.445312 L 75.597656 14.289062 L 76.335938 14.367188 C 76.054688 14.300781 76.699219 14.261719 77.484375 14.234375 L 77.46875 14.269531 L 78.425781 14.21875 C 77.480469 14.335938 79.300781 14.230469 78.867188 14.351562 C 79.6875 14.335938 79.707031 14.34375 81.179688 14.261719 L 80.917969 14.164062 C 82.84375 14.007812 81.003906 14.320312 82.566406 14.277344 L 82.464844 14.15625 C 84.71875 14.277344 86.269531 13.878906 87.933594 13.921875 C 86.984375 14 87.230469 14.128906 87.25 14.09375 C 88.675781 13.980469 91.007812 13.867188 92.476562 13.621094 C 93.027344 13.761719 93.15625 13.804688 94.683594 13.777344 C 95.785156 13.683594 95.949219 13.652344 96.300781 13.523438 C 97.375 13.511719 99.371094 13.238281 99.433594 13.359375 C 99.671875 13.234375 100.398438 13.296875 100.976562 13.160156 L 101.105469 13.199219 L 101.003906 13.085938 C 102.921875 13.183594 104.183594 12.632812 106.113281 12.667969 L 105.789062 12.734375 L 106.585938 12.605469 C 106.71875 12.644531 106.398438 12.710938 106.367188 12.785156 L 110.097656 12.394531 L 109.355469 12.386719 C 110.140625 12.289062 110.652344 12.105469 111.558594 12.074219 C 110.089844 12.429688 112.796875 11.9375 113.054688 12.042969 L 112.261719 12.1875 C 113.351562 12.046875 113.351562 12.042969 113.246094 11.929688 C 114.65625 11.710938 114.246094 12.042969 115.535156 11.746094 L 114.605469 11.855469 C 114.320312 11.820312 114.980469 11.636719 115.597656 11.558594 C 115.75 11.558594 116.195312 11.554688 115.722656 11.632812 C 116.492188 11.496094 117.535156 11.375 118.257812 11.277344 L 118.398438 9.765625 C 118.054688 9.667969 117.78125 9.597656 117.617188 9.570312 C 117.007812 9.386719 117.230469 9.351562 117.574219 9.394531 C 116.34375 9.183594 116.070312 9.136719 115.792969 9.089844 C 115.519531 9.039062 115.242188 8.976562 114.027344 8.871094 L 114.078125 8.808594 L 113.238281 8.789062 L 112.074219 8.507812 L 112.488281 8.644531 C 111.695312 8.566406 111.199219 8.578125 110.28125 8.445312 L 110.660156 8.378906 C 108.429688 8.242188 108.09375 7.988281 105.964844 7.996094 C 105.820312 7.96875 106.152344 7.957031 106.324219 7.949219 C 104.347656 7.992188 104.851562 7.675781 102.859375 7.769531 C 102.984375 7.742188 102.769531 7.6875 102.847656 7.664062 L 101.945312 7.691406 L 102.019531 7.554688 L 101.277344 7.730469 L 100.730469 7.566406 L 100.375 7.621094 C 99.421875 7.316406 98.054688 7.476562 96.738281 7.257812 L 96.960938 7.4375 C 93.605469 7.730469 89.367188 7.324219 85.386719 7.480469 L 85.457031 7.339844 L 83.8125 7.511719 C 82.929688 7.40625 84.34375 7.390625 84.066406 7.320312 C 82.304688 7.402344 83.335938 7.527344 81.285156 7.574219 C 80.234375 7.480469 81.652344 7.472656 82.144531 7.417969 C 80.226562 7.492188 77.390625 7.574219 76.027344 7.5 L 75.980469 7.550781 C 74.699219 7.621094 73.007812 7.5625 71.59375 7.585938 C 71.628906 7.519531 71.976562 7.507812 72.332031 7.492188 C 71.820312 7.488281 71.125 7.449219 70.691406 7.519531 L 71.222656 7.394531 C 70.136719 7.375 68.046875 7.511719 67.800781 7.375 C 67.933594 7.429688 67.878906 7.535156 66.941406 7.542969 C 66.417969 7.332031 64.386719 7.683594 62.878906 7.605469 C 63.058594 7.546875 64.160156 7.511719 63.851562 7.515625 C 63.09375 7.472656 62.417969 7.597656 61.753906 7.683594 L 61.957031 7.59375 L 58.445312 7.839844 C 57.914062 7.640625 55.132812 8.035156 55.363281 7.871094 C 54.105469 7.933594 56.421875 7.90625 54.835938 8.019531 C 54.40625 7.949219 53.402344 8.148438 53.460938 8.007812 L 53.628906 7.980469 L 52.523438 8.070312 L 53.210938 7.882812 C 52.257812 7.980469 51.566406 8.164062 51.527344 8.273438 C 50.617188 8.261719 49.335938 8.445312 48.914062 8.355469 L 49.246094 8.292969 C 47.691406 8.453125 46.449219 8.464844 45.261719 8.515625 L 45.613281 11.59375 C 46.355469 11.554688 47.078125 11.484375 47.832031 11.308594 C 47.980469 11.3125 47.96875 11.347656 47.660156 11.382812 L 49.214844 11.21875 L 48.855469 11.363281 L 51.40625 10.921875 L 51.382812 10.996094 C 53.082031 10.839844 55.730469 10.519531 57.910156 10.273438 L 57.589844 10.339844 C 59.960938 9.988281 59.894531 10.171875 61.628906 9.925781 L 61.449219 9.972656 L 63.015625 9.816406 L 62.675781 9.917969 C 63.824219 9.65625 66.011719 9.804688 65.285156 9.742188 C 65.9375 9.617188 67.058594 9.4375 67.246094 9.335938 C 68.957031 9.179688 67.671875 9.386719 68.738281 9.359375 C 69.972656 9.261719 70.183594 9.125 71.863281 9.058594 L 71.835938 9.128906 C 72.617188 9.058594 73.101562 8.976562 74.195312 8.886719 L 73.871094 8.941406 C 75.644531 8.675781 76.105469 8.996094 77.484375 8.609375 C 78.234375 8.617188 79.652344 8.503906 79.59375 8.644531 C 81.804688 8.433594 83.535156 8.324219 85.738281 8.1875 C 86.101562 8.40625 86.214844 8.15625 87.558594 8.25 L 87.457031 8.128906 C 90.582031 8.015625 94.175781 8.257812 97.621094 8.179688 L 97.71875 8.304688 L 98.410156 8.164062 C 102.128906 8.203125 106.9375 8.257812 109.898438 8.289062 C 110.871094 8.234375 112.347656 8.097656 113.890625 8.160156 L 113.730469 8.175781 C 116.417969 8.132812 119.261719 8.117188 122.195312 8.226562 C 122.011719 8.273438 122.304688 8.316406 121.976562 8.34375 C 122.671875 8.21875 123.695312 8.359375 124.324219 8.371094 L 123.589844 8.269531 C 124.425781 8.164062 125.621094 8.289062 126.042969 8.386719 L 127.367188 8.269531 L 127.605469 8.324219 L 127.839844 8.261719 L 128.539062 8.433594 C 128.867188 8.40625 130.613281 8.386719 131.160156 8.238281 C 131.285156 8.292969 132.519531 8.351562 131.566406 8.367188 L 136.382812 8.476562 L 135.632812 8.410156 C 135.539062 8.285156 136.988281 8.226562 137.738281 8.292969 C 136.753906 8.378906 137.65625 8.464844 138.074219 8.5625 C 138.730469 8.503906 137.507812 8.445312 137.851562 8.382812 C 138.679688 8.3125 140.421875 8.289062 140.855469 8.351562 L 140.363281 8.394531 C 141.480469 8.363281 141.996094 8.582031 143.097656 8.585938 C 144.089844 8.5 144.816406 8.601562 144.617188 8.386719 C 146.050781 8.363281 145.167969 8.539062 145.628906 8.566406 C 146.304688 8.472656 148.304688 8.5625 148.558594 8.671875 C 149.34375 8.375 152.410156 8.832031 152.707031 8.578125 L 153.878906 8.738281 C 153.914062 8.667969 154.152344 8.515625 155.105469 8.5 C 156 8.585938 155.785156 8.707031 156.058594 8.78125 L 156.664062 8.527344 C 159.21875 8.699219 162.179688 8.761719 165.203125 8.816406 L 165.703125 5.527344 C 162.683594 4.613281 159.550781 3.867188 156.710938 3.203125 C 154.175781 2.761719 150.964844 2.367188 148 1.988281 L 148.332031 1.996094 C 147.351562 1.839844 146.371094 1.730469 145.390625 1.59375 L 147.519531 1.945312 C 146.871094 1.902344 146.363281 1.898438 145.742188 1.828125 C 142.515625 1.378906 138.191406 0.925781 134.195312 0.882812 C 131.601562 1.070312 132.492188 0.539062 130.011719 0.667969 C 130.226562 0.648438 130.304688 0.609375 130.496094 0.585938 C 127.832031 0.589844 126.390625 0.605469 123.726562 0.714844 C 124.039062 0.429688 121.996094 0.6875 122.238281 0.535156 L 122.015625 0.652344 C 121.425781 0.566406 120.035156 0.511719 120.238281 0.429688 L 119.0625 0.554688 L 118.964844 0.429688 C 117.410156 0.378906 114.070312 0.429688 113.257812 0.167969 C 109.402344 0.289062 103.328125 0.167969 98.5 0.101562 C 97.820312 0.199219 96.410156 0.203125 95.308594 0.207031 L 94.132812 0.0546875 C 93.011719 0.09375 91.820312 0.285156 90.777344 0.191406 L 90.898438 0.152344 C 89.761719 0.183594 88.675781 0.109375 87.613281 0.246094 C 86.367188 0.238281 85.152344 0.160156 85.535156 0.0234375 C 85.414062 0.265625 82.890625 0.00390625 82.890625 0.00390625 C 82.890625 0.00390625 66.867188 -0.0859375 48.90625 0.351562 C 30.941406 0.757812 11.042969 1.625 3.261719 2.5625 C 2.742188 2.699219 1.292969 2.828125 1.855469 2.953125 C 0.734375 3.039062 0.210938 2.84375 0 2.972656 C 1.527344 2.996094 -0.460938 3.300781 1.035156 3.398438 L 0.078125 3.460938 C -0.113281 3.550781 1.375 3.316406 1.144531 3.480469 L 1.40625 3.246094 C 2.183594 3.253906 2.609375 3.285156 2.886719 3.351562 C 3.609375 3.238281 4.0625 2.917969 5.808594 2.988281 L 5.328125 3.019531 C 6.742188 2.960938 6.199219 3.136719 6.496094 3.160156 L 6.183594 3.171875 L 7.378906 3.242188 C 6.472656 3.199219 4.988281 3.433594 5.769531 3.390625 C 7.460938 3.394531 5.332031 3.351562 6.59375 3.28125 C 7.378906 3.242188 7.164062 3.371094 7.132812 3.441406 L 8.542969 3.382812 C 8.496094 3.488281 7.605469 3.410156 8.183594 3.5 L 9.957031 3.328125 C 10.296875 3.582031 11.890625 3.136719 12.710938 3.359375 C 11.433594 3.464844 12.828125 3.441406 12.628906 3.535156 L 15.761719 3.414062 C 16.058594 3.441406 14.9375 3.523438 15.414062 3.496094 C 16.007812 3.546875 16.382812 3.398438 16.699219 3.390625 C 16.972656 3.453125 19.039062 3.3125 18.957031 3.492188 C 21.085938 3.542969 19.84375 3.242188 21.828125 3.277344 C 22.09375 3.375 20.257812 3.351562 21.140625 3.433594 L 23.195312 3.332031 C 23.007812 3.386719 22.796875 3.515625 22.027344 3.515625 C 27.585938 3.488281 30.597656 3.957031 35.671875 3.679688 C 36.390625 3.785156 35.160156 3.777344 34.652344 3.875 C 38.324219 3.605469 39.832031 4.011719 42.960938 3.921875 L 43.015625 3.816406 C 47.386719 4.03125 52.636719 3.722656 57.570312 3.769531 L 56.980469 3.707031 C 57.65625 3.59375 58.753906 3.5625 59.5625 3.5 C 59.6875 3.550781 58.980469 3.734375 60.410156 3.667969 C 60.113281 3.632812 59.507812 3.605469 59.6875 3.550781 C 63.929688 3.742188 72.867188 3.550781 79.832031 3.640625 C 89.246094 3.492188 99.457031 3.714844 108.695312 3.761719 C 107.289062 3.757812 107.890625 3.503906 108.953125 3.578125 C 111.851562 4.058594 113.988281 3.574219 116.953125 3.925781 C 122.339844 3.898438 127.136719 4.363281 132.132812 4.230469 L 132.222656 4.355469 C 132.964844 4.445312 133.167969 4.367188 133.949219 4.390625 L 133.929688 4.421875 C 135.773438 4.550781 138.007812 4.5625 139.058594 4.691406 L 139.136719 4.558594 C 140.230469 4.621094 139.691406 4.707031 140.816406 4.710938 L 140.78125 4.777344 L 142.09375 4.746094 C 141.945312 4.980469 145.164062 5.035156 146.019531 5.257812 C 147.429688 5.347656 150.097656 5.597656 152.203125 5.96875 C 152.574219 6.152344 155.15625 6.578125 156.773438 6.976562 C 158.992188 7.410156 161.863281 8.042969 164.703125 8.886719 L 165.246094 5.3125 C 163.941406 5.289062 162.632812 5.265625 161.367188 5.242188 L 161.441406 5.402344 L 160.34375 5.398438 C 160.359375 5.363281 160.214844 5.34375 160.378906 5.328125 C 159.53125 5.136719 157.851562 5.351562 156.96875 5.230469 C 157.523438 5.378906 157.738281 5.261719 158.363281 5.273438 C 159.261719 5.359375 158.398438 5.5 157.1875 5.40625 L 157.210938 5.375 L 156.382812 5.445312 C 156.289062 5.320312 155.539062 5.253906 155.445312 5.128906 C 151.835938 5.113281 149.378906 5.296875 145.652344 5.191406 C 146.039062 5.058594 142.980469 5.191406 143.730469 4.960938 C 141.492188 5.023438 144.097656 5.160156 143.070312 5.316406 C 142.449219 5.304688 141.789062 5.359375 141.679688 5.269531 C 141.976562 5.21875 141.175781 5.117188 141.683594 5.105469 L 140.1875 5.101562 C 140.046875 5.082031 140.375 5.054688 140.539062 5.039062 C 137.496094 5.140625 135.148438 4.816406 132.414062 4.921875 C 132.210938 5.003906 133.5 4.957031 133.300781 5.042969 C 130.550781 5.183594 130.875 4.855469 128.3125 4.949219 L 128.84375 4.835938 C 128.015625 4.90625 127.652344 5.003906 126.292969 4.890625 C 126.058594 4.746094 127.449219 4.792969 128.105469 4.734375 C 127.171875 4.714844 124.808594 4.722656 125.527344 4.859375 C 124.40625 4.890625 124 4.761719 123.398438 4.714844 C 123.375 4.75 124.441406 4.824219 123.785156 4.878906 C 122.261719 4.78125 119.90625 4.753906 118.046875 4.71875 C 118.0625 4.683594 117.933594 4.628906 118.09375 4.613281 C 116.59375 4.78125 116.757812 4.464844 114.699219 4.484375" fill="#5ce1e6"/></g><g id="change1_26"><path d="M 75.367188 10.035156 L 74.613281 10.015625 C 74.613281 10.046875 74.582031 10.082031 74.234375 10.121094 L 75.367188 10.035156" fill="#5ce1e6"/></g><g id="change1_27"><path d="M 50.984375 8.226562 C 51.078125 8.207031 51.167969 8.1875 51.25 8.160156 C 51.070312 8.1875 51.011719 8.207031 50.984375 8.226562" fill="#5ce1e6"/></g><g id="change1_28"><path d="M 59.589844 7.074219 C 58.976562 7.167969 59.527344 7.148438 59.835938 7.152344 C 59.84375 7.125 59.828125 7.089844 59.589844 7.074219" fill="#5ce1e6"/></g><g id="change1_29"><path d="M 95.558594 9.539062 C 95.429688 9.550781 95.351562 9.570312 95.371094 9.597656 C 95.546875 9.574219 95.585938 9.554688 95.558594 9.539062" fill="#5ce1e6"/></g><g id="change1_30"><path d="M 85.117188 12.539062 L 85.339844 12.550781 C 85.296875 12.539062 85.21875 12.539062 85.117188 12.539062" fill="#5ce1e6"/></g><g id="change1_31"><path d="M 88.210938 12.601562 C 88.359375 12.59375 88.554688 12.578125 88.835938 12.546875 C 88.5625 12.554688 88.367188 12.578125 88.210938 12.601562" fill="#5ce1e6"/></g><g id="change1_32"><path d="M 82.03125 9.695312 C 81.824219 9.703125 81.621094 9.714844 81.445312 9.742188 C 81.765625 9.738281 81.925781 9.71875 82.03125 9.695312" fill="#5ce1e6"/></g><g id="change1_33"><path d="M 89.472656 12.476562 L 90.25 12.445312 L 90.261719 12.417969 Z M 89.472656 12.476562" fill="#5ce1e6"/></g><g id="change1_34"><path d="M 84.140625 12.5625 C 84.445312 12.554688 84.851562 12.542969 85.117188 12.539062 C 84.730469 12.515625 84.425781 12.527344 84.140625 12.5625" fill="#5ce1e6"/></g><g id="change1_35"><path d="M 115.871094 10.75 L 115.789062 10.738281 C 115.191406 10.703125 115.566406 10.738281 115.871094 10.75" fill="#5ce1e6"/></g><g id="change1_36"><path d="M 92.851562 12.019531 L 92.953125 12.019531 L 93.175781 11.964844 Z M 92.851562 12.019531" fill="#5ce1e6"/></g><g id="change1_37"><path d="M 80.785156 12.636719 C 80.929688 12.625 81.066406 12.617188 81.171875 12.59375 C 81.050781 12.59375 80.910156 12.59375 80.730469 12.59375 L 80.785156 12.636719" fill="#5ce1e6"/></g><g id="change1_38"><path d="M 108.632812 10.722656 C 108.421875 10.800781 108.34375 10.84375 108.335938 10.871094 C 108.59375 10.839844 108.753906 10.796875 108.632812 10.722656" fill="#5ce1e6"/></g></g></svg>